<?xml version="1.0" encoding="UTF-8" standalone="no"?>
<svg
   xmlns:dc="http://purl.org/dc/elements/1.1/"
   xmlns:cc="http://creativecommons.org/ns#"
   xmlns:rdf="http://www.w3.org/1999/02/22-rdf-syntax-ns#"
   xmlns:svg="http://www.w3.org/2000/svg"
   xmlns="http://www.w3.org/2000/svg"
   xmlns:sodipodi="http://sodipodi.sourceforge.net/DTD/sodipodi-0.dtd"
   xmlns:inkscape="http://www.inkscape.org/namespaces/inkscape"
   viewBox="0 0 38 38"
   id="svg3386"
   version="1.1"
   inkscape:version="0.91 r13725"
   sodipodi:docname="icon_sqaure.svg"
   width="38"
   height="38">
  <metadata
     id="metadata3396">
    <rdf:RDF>
      <cc:Work
         rdf:about="">
        <dc:format>image/svg+xml</dc:format>
        <dc:type
           rdf:resource="http://purl.org/dc/dcmitype/StillImage" />
        <dc:title></dc:title>
      </cc:Work>
    </rdf:RDF>
  </metadata>
  <defs
     id="defs3394" />
  <sodipodi:namedview
     pagecolor="#ffffff"
     bordercolor="#666666"
     borderopacity="1"
     objecttolerance="10"
     gridtolerance="10"
     guidetolerance="10"
     inkscape:pageopacity="0"
     inkscape:pageshadow="2"
     inkscape:window-width="1281"
     inkscape:window-height="711"
     id="namedview3392"
     showgrid="false"
     fit-margin-top="4"
     fit-margin-right="4"
     fit-margin-bottom="4"
     fit-margin-left="4"
     inkscape:zoom="13.263158"
     inkscape:cx="20.809524"
     inkscape:cy="19"
     inkscape:window-x="0"
     inkscape:window-y="0"
     inkscape:window-maximized="0"
     inkscape:current-layer="svg3386" />
  <rect
     style="fill:#512da8;fill-opacity:1;stroke:none;stroke-width:5;stroke-miterlimit:4;stroke-dasharray:none;stroke-opacity:1"
     id="rect3398"
     width="37.924606"
     height="37.849209"
     x="0.075396813"
     y="0.075396858"
     ry="4.2593884" />
  <g
     id="g3388"
     transform="translate(-0.01984127,-1.3769841)"
     style="fill:#ffffff">
    <path
       d="m 29.9,20.1 c 2.9,0.5 5.1,3.1 5.1,6.2 0,1.5 -0.6,3 -1.6,4.2 -1.2,1.3 -2.9,2 -4.8,2 -0.6,0 -1.3,-0.1 -2,-0.2 C 26.2,32.2 25.9,32 25.5,31.9 24.6,33 23.7,33.8 23,34.5 22.6,34.8 22,35 21.5,35 l -8,0 C 13,35 12.4,34.8 12,34.5 10.7,33.3 8.8,31.6 7.2,27.7 5.6,23.8 5,20.6 5,19.1 5,17.6 5.2,17.5 6.3,17.5 l 7.8,0 c -0.3,-1.3 -2.8,-1.5 -2.8,-3.6 0,-1.3 1.1,-2.5 2.1,-2.9 -0.1,0.6 -0.2,1.1 -0.2,1.7 0,1.4 3.1,2.3 3.1,4.1 0,0.2 0,0.5 -0.1,0.7 l 4.3,0 c 0.1,-0.4 0.2,-0.8 0.2,-1.1 0,-2.8 -4.4,-2.8 -4.4,-6.6 0,-2.1 1.7,-4.3 3.7,-4.8 -0.3,1.1 -0.7,1.8 -0.7,2.7 0,2.5 4.5,3.9 4.5,6.9 0,1 -0.4,2 -1,2.9 l 6,0 c 1,0 1.2,0 1.2,1.6 0,0.3 0,0.6 -0.1,1 z M 28.6,30 c 2.6,0 3.9,-2 3.9,-3.7 0,-1.7 -1.3,-3.4 -3,-3.7 -0.4,1.5 -0.9,3.3 -1.7,5.1 -0.3,0.7 -0.6,1.4 -0.9,2 0.4,0.2 1,0.3 1.7,0.3 z"
       id="path3390"
       inkscape:connector-curvature="0"
       style="fill:#ffffff" />
  </g>
</svg>
