<svg width="315" height="613" viewBox="0 0 315 613" xmlns="http://www.w3.org/2000/svg" xmlns:xlink="http://www.w3.org/1999/xlink"><title>5246C4C6-8753-4D62-B369-6E8C5788D011</title><defs><path id="a" d="M0 612.821h314.307V.006H0z"/></defs><g fill="none" fill-rule="evenodd" opacity=".15"><path d="M147.688 179.471l-.886-11.557M152.638 178.803l-1.19-15.499M157.285 174.192l-1.191-15.54M161.932 169.58l-1.188-15.498M166.58 164.97l-.884-11.527" stroke="#005246" stroke-width="2"/><path stroke="#005246" stroke-width="2" stroke-linecap="round" stroke-linejoin="round" d="M168.228 154.974l7.025-1.365-5.649-5.605zM145.641 177.384l-7.025 1.365 5.649 5.605z"/><g transform="translate(0 .2)"><path d="M2.834 18.937l2.837 24.448c0 2.305 1.877 4.19 4.17 4.19h11.707c2.294 0 4.17-1.885 4.17-4.19l2.837-24.448H2.835z" stroke="#005246" stroke-width="2"/><mask id="b" fill="#fff"><use xlink:href="#a"/></mask><path stroke="#005246" stroke-width="2" mask="url(#b)" d="M1.175 18.937h29.867V14.74H1.175zM3.83 14.74h23.815V8.055H3.83zM3.83 27.528h23.728"/><path stroke="#005246" stroke-width="2" mask="url(#b)" d="M21.734 8.056V1.185h-2.759v6.87M18.975 18.938v8.59h2.759v-8.59M170.983 160.21l-20.305 20.357c-.457.46-1.205.46-1.662 0l-6.742-6.759a1.186 1.186 0 0 1 0-1.666l20.305-20.357a1.178 1.178 0 0 1 1.663 0l6.74 6.758a1.184 1.184 0 0 1 0 1.667zM177.31 24.411c0-10.943-8.847-19.813-19.76-19.813-10.915 0-19.762 8.87-19.762 19.813s8.847 19.813 19.761 19.813 19.76-8.87 19.76-19.813z"/><path d="M162.829 24.411c0-2.923-2.364-5.293-5.28-5.293a5.286 5.286 0 0 0-5.28 5.293 5.286 5.286 0 0 0 5.28 5.294c2.916 0 5.28-2.37 5.28-5.294zM142.636 37.308c3.73 0 3.73-3.106 7.463-3.106 3.728 0 3.728 3.106 7.457 3.106 3.733 0 3.733-3.106 7.465-3.106 3.733 0 3.733 3.106 7.464 3.106M150.35 15.21c0-.67-.544-1.215-1.212-1.215a1.214 1.214 0 0 0 0 2.43c.668 0 1.212-.544 1.212-1.215zM168.274 15.762c0-.935-.757-1.693-1.69-1.693-.932 0-1.69.758-1.69 1.693 0 .936.758 1.694 1.69 1.694.933 0 1.69-.758 1.69-1.694zM169.596 27.327c0-.57-.46-1.032-1.028-1.032a1.03 1.03 0 0 0 0 2.063 1.03 1.03 0 0 0 1.028-1.031zM146.184 28.184c0-.84-.68-1.521-1.517-1.521a1.52 1.52 0 0 0-1.517 1.521c0 .84.68 1.522 1.517 1.522a1.52 1.52 0 0 0 1.517-1.522zM21.254 35.551c0-.786-.636-1.423-1.42-1.423a1.423 1.423 0 0 0 0 2.847c.784 0 1.42-.638 1.42-1.424zM11.117 42.99a1.054 1.054 0 1 0-2.107 0 1.054 1.054 0 1 0 2.107 0zM12.348 34.985c0-.633-.511-1.145-1.142-1.145-.63 0-1.142.512-1.142 1.145a1.142 1.142 0 1 0 2.284 0zM71.185 109.377v6.431l2.966-1.961 2.96 1.961 2.96-1.961 2.958 1.961 2.956-1.961 2.96 1.961 2.96-1.961 2.958 1.961 2.956-1.961 2.959 1.961V75.462l-2.966 1.961-2.96-1.961-2.96 1.961-2.959-1.961-2.956 1.961-2.96-1.961-2.959 1.961-2.958-1.961-2.956 1.961-2.959-1.961v30.075zM100.777 110.99H71.185M100.777 80.35H71.185" stroke="#005246" stroke-width="2" mask="url(#b)"/><path d="M92.843 95.635c0-3.902-3.072-7.064-6.861-7.064-3.791 0-6.863 3.162-6.863 7.064 0 3.901 3.072 7.063 6.863 7.063 3.789 0 6.861-3.162 6.861-7.063z" stroke="#005246" stroke-width="2" mask="url(#b)"/><path d="M100.777 108.373h-5.18M100.777 105.537h-8.51" stroke="#005246" stroke-width="2" stroke-linecap="round" mask="url(#b)"/><path d="M87.999 93.255a2.715 2.715 0 0 0-1.54-.479c-1.533 0-2.776 1.28-2.776 2.86 0 1.577 1.243 2.858 2.776 2.858.697 0 1.334-.264 1.822-.7M217.333 85.589v26.683l2.084-1.96 2.082 1.96 2.08-1.96 2.08 1.96 2.08-1.96 2.079 1.96 2.08-1.96 2.08 1.96 2.079-1.96 2.078 1.96v-18.95zM238.097 107.455h-20.725M236.67 92.66V74.325H218.8v11.808M227.735 74.325v15.13M236.67 80.065H218.8M236.67 85.113H218.8M217.333 90.408l20.764 7.83M299.576 26.98v18.982a1.18 1.18 0 0 1-1.175 1.178h-.147a1.18 1.18 0 0 1-1.176-1.178V26.859" stroke="#005246" stroke-width="2" mask="url(#b)"/><path d="M310.353 14.948c0-6.66-5.383-12.059-12.025-12.059S286.3 8.288 286.3 14.948c0 6.66 5.385 12.058 12.027 12.058 6.642 0 12.025-5.399 12.025-12.058z" stroke="#005246" stroke-width="2" stroke-linejoin="round" mask="url(#b)"/><path d="M309.77 11.416a7.9 7.9 0 0 0-4.197-1.209c-3.224 0-5.996 1.927-7.245 4.693a7.905 7.905 0 0 1 2.511-.413c3.904 0 7.143 2.82 7.822 6.535M288.336 8.323a7.94 7.94 0 0 0 9.913 6.706 7.897 7.897 0 0 1-1.905-1.695c-2.46-3.036-2.322-7.335.126-10.207" stroke="#005246" stroke-width="2" stroke-linejoin="round" mask="url(#b)"/><path d="M296.39 26.775a7.912 7.912 0 0 0 2.966-3.214 7.99 7.99 0 0 0-.915-8.598 7.948 7.948 0 0 1-10.105 6.495" stroke="#005246" stroke-width="2" stroke-linejoin="round" mask="url(#b)"/><path d="M17.486 168.4v18.981a1.18 1.18 0 0 1-1.175 1.179h-.147a1.18 1.18 0 0 1-1.175-1.179V168.28" stroke="#005246" stroke-width="2" mask="url(#b)"/><path d="M28.264 156.368c0-6.659-5.384-12.057-12.026-12.057-6.642 0-12.027 5.398-12.027 12.057 0 6.66 5.385 12.057 12.027 12.057 6.642 0 12.026-5.397 12.026-12.057z" stroke="#005246" stroke-width="2" stroke-linejoin="round" mask="url(#b)"/><path d="M27.68 152.837a7.9 7.9 0 0 0-4.197-1.21c-3.224 0-5.996 1.928-7.245 4.693a7.904 7.904 0 0 1 2.512-.413c3.903 0 7.143 2.82 7.82 6.535M6.246 149.744a7.94 7.94 0 0 0 9.913 6.706 7.94 7.94 0 0 1-1.904-1.695c-2.461-3.036-2.323-7.335.125-10.207" stroke="#005246" stroke-width="2" stroke-linejoin="round" mask="url(#b)"/><path d="M14.301 168.196a7.93 7.93 0 0 0 2.967-3.214 7.991 7.991 0 0 0-.917-8.599 7.945 7.945 0 0 1-10.105 6.494" stroke="#005246" stroke-width="2" stroke-linejoin="round" mask="url(#b)"/><path d="M284.924 161.536l2.836 24.448c0 2.305 1.877 4.19 4.172 4.19h11.705c2.294 0 4.171-1.885 4.171-4.19l2.837-24.448h-25.721zM283.266 161.536h29.865v-4.196h-29.865zM285.92 157.34h23.814v-6.685H285.92zM285.92 170.127h23.729M303.824 150.654v-6.87h-2.76v6.87" stroke="#005246" stroke-width="2" mask="url(#b)"/><path stroke="#005246" stroke-width="2" mask="url(#b)" d="M301.065 161.537v8.59h2.76v-8.59M303.344 178.15c0-.786-.636-1.424-1.42-1.424-.785 0-1.42.638-1.42 1.425 0 .786.635 1.423 1.42 1.423.784 0 1.42-.637 1.42-1.423zM293.207 185.59a1.054 1.054 0 1 0-2.107 0c0 .582.472 1.056 1.054 1.056.581 0 1.053-.474 1.053-1.056zM294.437 177.583c0-.631-.511-1.145-1.142-1.145-.63 0-1.142.514-1.142 1.145 0 .633.512 1.146 1.142 1.146.63 0 1.142-.513 1.142-1.146zM73.357 231.067l2.836 24.448c0 2.305 1.877 4.191 4.17 4.191H92.07c2.294 0 4.171-1.886 4.171-4.19l2.836-24.449h-25.72z"/><path stroke="#005246" stroke-width="2" mask="url(#b)" d="M71.698 231.068h29.866v-4.197H71.698zM74.353 226.871h23.814v-6.684H74.353zM74.353 239.658H98.08M92.256 220.186v-6.871h-2.758v6.87"/><path stroke="#005246" stroke-width="2" mask="url(#b)" d="M89.498 231.068v8.59h2.758v-8.59M247.832 236.542c0-10.942-8.847-19.813-19.76-19.813-10.915 0-19.762 8.87-19.762 19.813 0 10.942 8.847 19.813 19.762 19.813 10.913 0 19.76-8.87 19.76-19.813z"/><path d="M233.351 236.542c0-2.924-2.364-5.294-5.28-5.294a5.286 5.286 0 0 0-5.28 5.294c0 2.923 2.363 5.294 5.28 5.294 2.916 0 5.28-2.371 5.28-5.294zM213.159 249.439c3.73 0 3.73-3.108 7.462-3.108 3.728 0 3.728 3.108 7.458 3.108 3.733 0 3.733-3.108 7.464-3.108 3.733 0 3.733 3.108 7.465 3.108M220.872 227.34c0-.67-.543-1.214-1.212-1.214a1.214 1.214 0 0 0 0 2.43c.669 0 1.212-.545 1.212-1.215zM238.796 227.893c0-.936-.757-1.694-1.689-1.694-.933 0-1.69.758-1.69 1.694 0 .936.757 1.694 1.69 1.694.932 0 1.69-.758 1.69-1.694zM240.119 239.457c0-.57-.461-1.031-1.029-1.031a1.03 1.03 0 0 0 0 2.062 1.03 1.03 0 0 0 1.029-1.03zM216.706 240.314c0-.839-.679-1.52-1.517-1.52-.837 0-1.516.681-1.516 1.52 0 .84.68 1.522 1.516 1.522a1.52 1.52 0 0 0 1.517-1.522zM91.777 247.682c0-.787-.636-1.424-1.42-1.424a1.423 1.423 0 1 0 0 2.848c.784 0 1.42-.638 1.42-1.424zM81.639 255.122a1.054 1.054 0 1 0-2.106 0c0 .582.471 1.056 1.053 1.056s1.053-.474 1.053-1.056zM82.87 247.115c0-.632-.51-1.146-1.142-1.146-.63 0-1.141.514-1.141 1.146 0 .633.511 1.145 1.141 1.145.631 0 1.143-.512 1.143-1.145zM287.856 300.076V326.762l2.084-1.963 2.081 1.962 2.08-1.962 2.08 1.962 2.08-1.962 2.08 1.962 2.08-1.962 2.079 1.962 2.08-1.962 2.077 1.962V307.81zM308.62 321.942h-20.726" stroke="#005246" stroke-width="2" mask="url(#b)"/><path stroke="#005246" stroke-width="2" mask="url(#b)" d="M307.193 307.147v-18.335H289.32v11.81M298.257 288.813v15.13M307.193 294.552H289.32M307.193 299.601H289.32M287.856 304.895l20.764 7.831M1.838 321.508V327.939l2.966-1.962 2.96 1.962 2.96-1.962 2.958 1.962 2.956-1.962 2.96 1.962 2.96-1.962 2.958 1.962 2.956-1.962 2.959 1.962V287.593l-2.966 1.961-2.96-1.961-2.96 1.961-2.959-1.961-2.956 1.961-2.96-1.961-2.959 1.961-2.958-1.961-2.956 1.961-2.959-1.961v30.074zM31.43 323.12H1.838M31.43 292.48H1.838"/><path d="M23.496 307.765c0-3.9-3.072-7.062-6.861-7.062-3.791 0-6.863 3.161-6.863 7.062 0 3.902 3.072 7.064 6.863 7.064 3.789 0 6.861-3.162 6.861-7.064z" stroke="#005246" stroke-width="2" mask="url(#b)"/><path d="M31.43 320.503h-5.18M31.43 317.668h-8.51" stroke="#005246" stroke-width="2" stroke-linecap="round" mask="url(#b)"/><path d="M18.651 305.385a2.706 2.706 0 0 0-1.54-.478c-1.532 0-2.776 1.28-2.776 2.859 0 1.578 1.244 2.858 2.777 2.858.697 0 1.334-.263 1.821-.7M78.341 391.402l-.886-11.557M83.29 390.734l-1.188-15.499M87.938 386.123l-1.192-15.54M92.586 381.512l-1.189-15.499M97.233 376.901l-.884-11.527" stroke="#005246" stroke-width="2" mask="url(#b)"/><path stroke="#005246" stroke-width="2" stroke-linecap="round" stroke-linejoin="round" mask="url(#b)" d="M98.881 366.905l7.025-1.365-5.65-5.605zM76.294 389.315l-7.025 1.365 5.65 5.605z"/><path d="M101.636 372.34L81.33 392.698c-.457.46-1.205.46-1.662 0l-6.742-6.759a1.186 1.186 0 0 1 0-1.666l20.305-20.358a1.176 1.176 0 0 1 1.662 0l6.742 6.759a1.184 1.184 0 0 1 0 1.666zM214.402 373.666l2.836 24.448c0 2.305 1.877 4.19 4.171 4.19h11.706c2.294 0 4.171-1.885 4.171-4.19l2.836-24.448h-25.72z" stroke="#005246" stroke-width="2" mask="url(#b)"/><path stroke="#005246" stroke-width="2" mask="url(#b)" d="M212.744 373.667h29.865v-4.197h-29.865z"/><path stroke="#005246" stroke-width="2" mask="url(#b)" d="M215.398 369.47h23.814v-6.684h-23.814zM215.398 382.257h23.727M233.302 362.784v-6.87h-2.76v6.87M230.542 373.667v8.59h2.76v-8.59M232.822 390.281c0-.787-.636-1.425-1.421-1.425-.784 0-1.42.638-1.42 1.425 0 .786.636 1.424 1.42 1.424.785 0 1.42-.638 1.42-1.424zM222.684 397.72a1.054 1.054 0 1 0-2.106 0c0 .583.471 1.057 1.053 1.057s1.053-.474 1.053-1.056zM223.915 389.714c0-.632-.511-1.146-1.143-1.146-.63 0-1.14.514-1.14 1.146 0 .633.51 1.145 1.14 1.145.632 0 1.143-.512 1.143-1.145zM158.531 309.82v18.982a1.18 1.18 0 0 1-1.175 1.178h-.147a1.18 1.18 0 0 1-1.176-1.178v-19.103"/><path d="M169.308 297.788c0-6.658-5.383-12.057-12.025-12.057s-12.027 5.399-12.027 12.057c0 6.66 5.385 12.058 12.027 12.058 6.642 0 12.025-5.398 12.025-12.058z" stroke="#005246" stroke-width="2" stroke-linejoin="round" mask="url(#b)"/><path d="M168.725 294.257a7.9 7.9 0 0 0-4.197-1.209c-3.224 0-5.996 1.927-7.245 4.692a7.904 7.904 0 0 1 2.512-.413c3.903 0 7.142 2.82 7.822 6.535M147.292 291.164a7.94 7.94 0 0 0 9.913 6.706 7.922 7.922 0 0 1-1.906-1.695c-2.46-3.036-2.322-7.335.126-10.207" stroke="#005246" stroke-width="2" stroke-linejoin="round" mask="url(#b)"/><path d="M155.346 309.616a7.92 7.92 0 0 0 2.965-3.214 7.989 7.989 0 0 0-.915-8.598 7.944 7.944 0 0 1-10.105 6.494" stroke="#005246" stroke-width="2" stroke-linejoin="round" mask="url(#b)"/><path d="M4.01 444.376l2.836 24.448c0 2.305 1.877 4.191 4.17 4.191h11.707c2.294 0 4.171-1.886 4.171-4.19l2.836-24.449H4.01z" stroke="#005246" stroke-width="2" mask="url(#b)"/><path stroke="#005246" stroke-width="2" mask="url(#b)" d="M2.35 444.377h29.867v-4.197H2.351zM5.006 440.18H28.82v-6.684H5.006zM5.006 452.967h23.727M22.91 433.495v-6.871h-2.76v6.87M20.15 444.377v8.59h2.76v-8.59M178.485 449.85c0-10.941-8.847-19.812-19.76-19.812-10.915 0-19.762 8.87-19.762 19.813 0 10.942 8.847 19.813 19.762 19.813 10.913 0 19.76-8.87 19.76-19.813z"/><path d="M164.004 449.85c0-2.923-2.364-5.293-5.28-5.293a5.286 5.286 0 0 0-5.28 5.294c0 2.923 2.363 5.294 5.28 5.294 2.916 0 5.28-2.371 5.28-5.294zM143.811 462.748c3.731 0 3.731-3.108 7.463-3.108 3.728 0 3.728 3.108 7.458 3.108 3.733 0 3.733-3.108 7.464-3.108 3.733 0 3.733 3.108 7.464 3.108M151.525 440.65c0-.67-.543-1.215-1.212-1.215-.67 0-1.212.544-1.212 1.215 0 .67.542 1.215 1.212 1.215.669 0 1.212-.545 1.212-1.215zM169.45 441.202c0-.936-.758-1.693-1.69-1.693-.933 0-1.69.757-1.69 1.693s.757 1.694 1.69 1.694c.932 0 1.69-.758 1.69-1.694zM170.772 452.766c0-.57-.461-1.031-1.029-1.031a1.03 1.03 0 0 0 0 2.062 1.03 1.03 0 0 0 1.029-1.03zM147.36 453.623c0-.839-.68-1.52-1.518-1.52-.837 0-1.516.681-1.516 1.52 0 .84.68 1.522 1.516 1.522a1.52 1.52 0 0 0 1.517-1.522zM22.43 460.991c0-.787-.636-1.424-1.42-1.424a1.423 1.423 0 1 0 0 2.848c.784 0 1.42-.638 1.42-1.424zM12.292 468.43a1.054 1.054 0 1 0-2.106 0c0 .583.471 1.057 1.053 1.057s1.053-.474 1.053-1.056zM13.524 460.424c0-.632-.512-1.146-1.143-1.146-.63 0-1.141.514-1.141 1.146 0 .633.511 1.145 1.141 1.145.631 0 1.143-.512 1.143-1.145zM300.751 452.419V471.4a1.18 1.18 0 0 1-1.175 1.178h-.147a1.18 1.18 0 0 1-1.175-1.178v-19.103" stroke="#005246" stroke-width="2" mask="url(#b)"/><path d="M311.528 440.387c0-6.658-5.383-12.057-12.025-12.057s-12.026 5.399-12.026 12.057c0 6.66 5.384 12.057 12.026 12.057 6.642 0 12.025-5.397 12.025-12.057z" stroke="#005246" stroke-width="2" stroke-linejoin="round" mask="url(#b)"/><path d="M310.945 436.856a7.9 7.9 0 0 0-4.197-1.209c-3.224 0-5.996 1.927-7.245 4.692a7.904 7.904 0 0 1 2.512-.413c3.903 0 7.142 2.82 7.822 6.535M289.512 433.763a7.94 7.94 0 0 0 9.913 6.706 7.922 7.922 0 0 1-1.905-1.695c-2.46-3.036-2.323-7.335.125-10.207" stroke="#005246" stroke-width="2" stroke-linejoin="round" mask="url(#b)"/><path d="M297.566 452.215a7.92 7.92 0 0 0 2.966-3.214 7.989 7.989 0 0 0-.916-8.598 7.944 7.944 0 0 1-10.105 6.494" stroke="#005246" stroke-width="2" stroke-linejoin="round" mask="url(#b)"/><path stroke="#005246" stroke-width="2" mask="url(#b)" d="M73.536 535.995V542.427l2.965-1.963 2.961 1.963 2.96-1.963 2.958 1.963 2.956-1.963 2.96 1.963 2.96-1.963 2.958 1.963 2.956-1.963 2.958 1.963V502.08l-2.965 1.96-2.96-1.96-2.96 1.96-2.959-1.96-2.956 1.96-2.96-1.96-2.96 1.96-2.958-1.96-2.956 1.96-2.958-1.96v30.074zM103.128 537.608H73.536M103.128 506.968H73.536"/><path d="M95.194 522.253c0-3.901-3.072-7.063-6.862-7.063s-6.863 3.162-6.863 7.063c0 3.902 3.073 7.064 6.863 7.064 3.79 0 6.862-3.162 6.862-7.064z" stroke="#005246" stroke-width="2" mask="url(#b)"/><path d="M103.128 534.99h-5.181M103.128 532.155h-8.51" stroke="#005246" stroke-width="2" stroke-linecap="round" mask="url(#b)"/><path d="M90.35 519.873a2.706 2.706 0 0 0-1.54-.479c-1.533 0-2.777 1.28-2.777 2.86 0 1.577 1.244 2.857 2.777 2.857.697 0 1.334-.263 1.821-.699M219.684 512.207V538.892l2.084-1.963 2.081 1.963 2.08-1.963 2.081 1.963 2.08-1.963 2.079 1.963 2.08-1.963 2.08 1.963 2.079-1.963 2.078 1.963V519.94zM240.448 534.072h-20.725" stroke="#005246" stroke-width="2" mask="url(#b)"/><path stroke="#005246" stroke-width="2" mask="url(#b)" d="M239.021 519.278v-18.335H221.15v11.81M230.086 500.943v15.131M239.021 506.683H221.15M239.021 511.732H221.15M219.684 517.026l20.764 7.83M290.206 581.738V608.424l2.084-1.963 2.082 1.962 2.08-1.962 2.08 1.962 2.08-1.962 2.08 1.962 2.08-1.962 2.079 1.962 2.079-1.962 2.078 1.962V589.471zM310.97 603.604h-20.725"/><path stroke="#005246" stroke-width="2" mask="url(#b)" d="M309.544 588.81v-18.336h-17.872v11.81M300.608 570.475v15.13M309.544 576.214h-17.872M309.544 581.263h-17.872M290.206 586.557l20.764 7.831M4.189 603.17V609.601l2.965-1.962 2.961 1.962 2.96-1.962 2.958 1.962 2.956-1.962 2.96 1.962 2.96-1.962 2.958 1.962 2.956-1.962 2.958 1.962V569.255l-2.965 1.961-2.96-1.96-2.96 1.96-2.959-1.96-2.956 1.96-2.96-1.96-2.96 1.96-2.958-1.96-2.956 1.96-2.958-1.96v30.073zM33.78 604.783H4.19M33.78 574.143H4.19"/><path d="M25.847 589.428c0-3.901-3.072-7.063-6.862-7.063s-6.863 3.162-6.863 7.063c0 3.902 3.073 7.063 6.863 7.063 3.79 0 6.862-3.161 6.862-7.063z" stroke="#005246" stroke-width="2" mask="url(#b)"/><path d="M33.78 602.165H28.6M33.78 599.33h-8.51" stroke="#005246" stroke-width="2" stroke-linecap="round" mask="url(#b)"/><path d="M21.002 587.048a2.706 2.706 0 0 0-1.54-.479c-1.532 0-2.776 1.28-2.776 2.86 0 1.577 1.244 2.857 2.776 2.857.697 0 1.334-.263 1.822-.699M160.882 591.482v18.982a1.18 1.18 0 0 1-1.175 1.179h-.147a1.18 1.18 0 0 1-1.176-1.179v-19.102" stroke="#005246" stroke-width="2" mask="url(#b)"/><path d="M171.659 579.45c0-6.658-5.383-12.057-12.025-12.057s-12.027 5.399-12.027 12.058c0 6.66 5.385 12.057 12.027 12.057 6.642 0 12.025-5.398 12.025-12.057z" stroke="#005246" stroke-width="2" stroke-linejoin="round" mask="url(#b)"/><path d="M171.076 575.92a7.9 7.9 0 0 0-4.197-1.21c-3.225 0-5.996 1.927-7.245 4.692a7.904 7.904 0 0 1 2.511-.412c3.904 0 7.143 2.819 7.822 6.534M149.642 572.826a7.94 7.94 0 0 0 9.913 6.706 7.922 7.922 0 0 1-1.905-1.695c-2.46-3.036-2.322-7.335.126-10.207" stroke="#005246" stroke-width="2" stroke-linejoin="round" mask="url(#b)"/><path d="M157.697 591.278a7.92 7.92 0 0 0 2.965-3.214 7.989 7.989 0 0 0-.915-8.598 7.944 7.944 0 0 1-10.105 6.494" stroke="#005246" stroke-width="2" stroke-linejoin="round" mask="url(#b)"/></g></g></svg>