<?xml version="1.0" encoding="UTF-8" standalone="no"?>
<svg width="315px" height="613px" viewBox="0 0 315 613" version="1.1" xmlns="http://www.w3.org/2000/svg" xmlns:xlink="http://www.w3.org/1999/xlink">
    <!-- Generator: sketchtool 41.2 (35397) - http://www.bohemiancoding.com/sketch -->
    <title>5246C4C6-8753-4D62-B369-6E8C5788D011</title>
    <desc>Created with sketchtool.</desc>
    <defs>
        <polygon id="path-1" points="0 612.821497 314.30653 612.821497 314.30653 0.0058925144 0 0.0058925144"></polygon>
    </defs>
    <g id="Page-1" stroke="none" stroke-width="1" fill="none" fill-rule="evenodd" opacity="0.15">
        <g id="Tuckshop_Splash" transform="translate(-30.000000, -27.000000)">
            <g id="Page-1" transform="translate(30.000000, 27.000000)">
                <path d="M147.68775,179.471288 L146.801519,167.913711" id="Stroke-1" stroke="#005246" stroke-width="2"></path>
                <path d="M152.638304,178.802606 L151.448826,163.304114" id="Stroke-2" stroke="#005246" stroke-width="2"></path>
                <path d="M157.284672,174.192185 L156.094019,158.651267" id="Stroke-3" stroke="#005246" stroke-width="2"></path>
                <path d="M161.932215,169.580585 L160.743912,154.082094" id="Stroke-4" stroke="#005246" stroke-width="2"></path>
                <path d="M166.579757,164.970164 L165.695877,153.443227" id="Stroke-5" stroke="#005246" stroke-width="2"></path>
                <polygon id="Stroke-6" stroke="#005246" stroke-width="2" stroke-linecap="round" stroke-linejoin="round" points="168.227983 154.973631 175.253188 153.608925 169.604345 148.003965"></polygon>
                <polygon id="Stroke-7" stroke="#005246" stroke-width="2" stroke-linecap="round" stroke-linejoin="round" points="145.64119 177.383571 138.615985 178.749455 144.264828 184.354415"></polygon>
                <g id="Group-166" transform="translate(0.000000, 0.199552)">
                    <path d="M2.83441231,18.9371271 L5.67058769,43.3851693 C5.67058769,45.6903209 7.54765858,47.574747 9.84081157,47.574747 L21.547528,47.574747 C23.8418563,47.574747 25.7189272,45.6903209 25.7189272,43.3851693 L28.5551026,18.9371271 L2.83441231,18.9371271 Z" id="Stroke-8" stroke="#005246" stroke-width="2"></path>
                    <mask id="mask-2" fill="white">
                        <use xlink:href="#path-1"></use>
                    </mask>
                    <g id="Clip-11"></g>
                    <polygon id="Stroke-10" stroke="#005246" stroke-width="2" mask="url(#mask-2)" points="1.17537313 18.9373628 31.0416045 18.9373628 31.0416045 14.7395355 1.17537313 14.7395355"></polygon>
                    <polygon id="Stroke-12" stroke="#005246" stroke-width="2" mask="url(#mask-2)" points="3.83054104 14.7395355 27.6447761 14.7395355 27.6447761 8.05506718 3.83054104 8.05506718"></polygon>
                    <path d="M3.83077612,27.5279417 L27.5580336,27.5279417" id="Stroke-13" stroke="#005246" stroke-width="2" mask="url(#mask-2)"></path>
                    <polyline id="Stroke-14" stroke="#005246" stroke-width="2" mask="url(#mask-2)" points="21.7339422 8.05553858 21.7339422 1.18486679 18.9753414 1.18486679 18.9753414 8.05553858"></polyline>
                    <polyline id="Stroke-15" stroke="#005246" stroke-width="2" mask="url(#mask-2)" points="18.9751063 18.9377163 18.9751063 27.5278238 21.7337071 27.5278238 21.7337071 18.9377163"></polyline>
                    <path d="M170.982823,160.209688 L150.678252,180.567147 C150.221032,181.026763 149.473494,181.026763 149.016274,180.567147 L142.274334,173.808433 C141.818289,173.349995 141.818289,172.600468 142.274334,172.14203 L162.578905,151.784571 C163.036125,151.326134 163.783662,151.326134 164.242058,151.784571 L170.982823,158.543285 C171.440043,159.001723 171.440043,159.751251 170.982823,160.209688 Z" id="Stroke-16" stroke="#005246" stroke-width="2" mask="url(#mask-2)"></path>
                    <path d="M177.309621,24.4113908 C177.309621,13.4678131 168.462588,4.59840038 157.549248,4.59840038 C146.634733,4.59840038 137.7877,13.4678131 137.7877,24.4113908 C137.7877,35.35379 146.634733,44.2243812 157.549248,44.2243812 C168.462588,44.2243812 177.309621,35.35379 177.309621,24.4113908 Z" id="Stroke-17" stroke="#005246" stroke-width="2" mask="url(#mask-2)"></path>
                    <path d="M162.828672,24.4113908 C162.828672,21.4875251 160.464996,19.1175559 157.548896,19.1175559 C154.631619,19.1175559 152.269119,21.4875251 152.269119,24.4113908 C152.269119,27.3352564 154.631619,29.7052257 157.548896,29.7052257 C160.464996,29.7052257 162.828672,27.3352564 162.828672,24.4113908 Z" id="Stroke-18" stroke="#005246" stroke-width="2" mask="url(#mask-2)"></path>
                    <path d="M142.636114,37.3081013 C146.366748,37.3081013 146.366748,34.2015678 150.098558,34.2015678 C153.826841,34.2015678 153.826841,37.3081013 157.5563,37.3081013 C161.289285,37.3081013 161.289285,34.2015678 165.021095,34.2015678 C168.75408,34.2015678 168.75408,37.3081013 172.484715,37.3081013" id="Stroke-19" stroke="#005246" stroke-width="2" mask="url(#mask-2)"></path>
                    <path d="M150.3495,15.2101117 C150.3495,14.5395436 149.806478,13.9950752 149.13769,13.9950752 C148.467728,13.9950752 147.924705,14.5395436 147.924705,15.2101117 C147.924705,15.8806798 148.467728,16.4251482 149.13769,16.4251482 C149.806478,16.4251482 150.3495,15.8806798 150.3495,15.2101117 Z" id="Stroke-20" stroke="#005246" stroke-width="2" mask="url(#mask-2)"></path>
                    <path d="M168.27394,15.762476 C168.27394,14.8267447 167.517,14.0689674 166.584929,14.0689674 C165.651683,14.0689674 164.894743,14.8267447 164.894743,15.762476 C164.894743,16.6982073 165.651683,17.4559846 166.584929,17.4559846 C167.517,17.4559846 168.27394,16.6982073 168.27394,15.762476 Z" id="Stroke-21" stroke="#005246" stroke-width="2" mask="url(#mask-2)"></path>
                    <path d="M169.596235,27.3265355 C169.596235,26.7573186 169.135489,26.2953455 168.567784,26.2953455 C168.000078,26.2953455 167.539332,26.7573186 167.539332,27.3265355 C167.539332,27.8957524 168.000078,28.3577255 168.567784,28.3577255 C169.135489,28.3577255 169.596235,27.8957524 169.596235,27.3265355 Z" id="Stroke-22" stroke="#005246" stroke-width="2" mask="url(#mask-2)"></path>
                    <path d="M146.184095,28.1844856 C146.184095,27.3442131 145.504729,26.6630384 144.666688,26.6630384 C143.829823,26.6630384 143.150457,27.3442131 143.150457,28.1844856 C143.150457,29.0235797 143.829823,29.7059328 144.666688,29.7059328 C145.504729,29.7059328 146.184095,29.0235797 146.184095,28.1844856 Z" id="Stroke-23" stroke="#005246" stroke-width="2" mask="url(#mask-2)"></path>
                    <path d="M21.2541549,35.5513071 C21.2541549,34.7652457 20.618278,34.1276756 19.8343041,34.1276756 C19.0503302,34.1276756 18.413278,34.7652457 18.413278,35.5513071 C18.413278,36.3373685 19.0503302,36.9749386 19.8343041,36.9749386 C20.618278,36.9749386 21.2541549,36.3373685 21.2541549,35.5513071 Z" id="Stroke-24" stroke="#005246" stroke-width="2" mask="url(#mask-2)"></path>
                    <path d="M11.1165616,42.9906065 C11.1165616,42.4072476 10.6452369,41.9346679 10.0634272,41.9346679 C9.48161754,41.9346679 9.01029291,42.4072476 9.01029291,42.9906065 C9.01029291,43.5739655 9.48161754,44.0465451 10.0634272,44.0465451 C10.6452369,44.0465451 11.1165616,43.5739655 11.1165616,42.9906065 Z" id="Stroke-25" stroke="#005246" stroke-width="2" mask="url(#mask-2)"></path>
                    <path d="M12.3482351,34.9850365 C12.3482351,34.3521804 11.8369478,33.8395317 11.2057724,33.8395317 C10.5757724,33.8395317 10.0644851,34.3521804 10.0644851,34.9850365 C10.0644851,35.6178925 10.5757724,36.1293628 11.2057724,36.1293628 C11.8369478,36.1293628 12.3482351,35.6178925 12.3482351,34.9850365 Z" id="Stroke-26" stroke="#005246" stroke-width="2" mask="url(#mask-2)"></path>
                    <polygon id="Stroke-27" stroke="#005246" stroke-width="2" mask="url(#mask-2)" points="71.185181 109.37697 71.185181 109.781197 71.185181 115.80806 74.1506474 113.847031 77.1114123 115.80806 80.0710019 113.847031 83.029416 115.80806 85.9854795 113.847031 88.945069 115.80806 91.9046586 113.847031 94.8630728 115.80806 97.8191362 113.847031 100.77755 115.80806 100.77755 110.082893 100.77755 105.537408 100.77755 75.4620142 97.812084 77.423043 94.851319 75.4620142 91.8917295 77.423043 88.9333153 75.4620142 85.9772519 77.423043 83.0176623 75.4620142 80.0580728 77.423043 77.0996586 75.4620142 74.1435951 77.423043 71.185181 75.4620142 71.185181 105.537408"></polygon>
                    <path d="M100.777198,110.990458 L71.1848284,110.990458" id="Stroke-28" stroke="#005246" stroke-width="2" mask="url(#mask-2)"></path>
                    <path d="M100.777198,80.3499727 L71.1848284,80.3499727" id="Stroke-29" stroke="#005246" stroke-width="2" mask="url(#mask-2)"></path>
                    <path d="M92.8434291,95.6353908 C92.8434291,91.7333678 89.7710037,88.5714445 85.9816007,88.5714445 C82.1910224,88.5714445 79.118597,91.7333678 79.118597,95.6353908 C79.118597,99.5362353 82.1910224,102.698159 85.9816007,102.698159 C89.7710037,102.698159 92.8434291,99.5362353 92.8434291,95.6353908 Z" id="Stroke-30" stroke="#005246" stroke-width="2" mask="url(#mask-2)"></path>
                    <path d="M100.777198,108.373357 L95.596153,108.373357" id="Stroke-31" stroke="#005246" stroke-width="2" stroke-linecap="round" mask="url(#mask-2)"></path>
                    <path d="M100.777198,105.537054 L92.2663209,105.537054" id="Stroke-32" stroke="#005246" stroke-width="2" stroke-linecap="round" mask="url(#mask-2)"></path>
                    <path d="M87.998541,93.254815 C87.5577761,92.9531182 87.0288582,92.7763428 86.4588022,92.7763428 C84.9261157,92.7763428 83.6825709,94.0561969 83.6825709,95.6353908 C83.6825709,97.2134061 84.9261157,98.4944388 86.4588022,98.4944388 C87.1557985,98.4944388 87.7928507,98.2304541 88.2806306,97.7944081" id="Stroke-33" stroke="#005246" stroke-width="2" mask="url(#mask-2)"></path>
                    <polygon id="Stroke-34" stroke="#005246" stroke-width="2" mask="url(#mask-2)" points="217.333192 85.5887716 217.333192 102.001781 217.333192 105.841344 217.333192 106.24557 217.333192 112.272434 219.417129 110.311405 221.498715 112.272434 223.579125 110.311405 225.659535 112.272434 227.738771 110.311405 229.818006 112.272434 231.898416 110.311405 233.977651 112.272434 236.056886 110.311405 238.134946 112.272434 238.134946 106.547267 238.134946 102.001781 238.134946 93.3221075"></polygon>
                    <path d="M238.097334,107.45495 L217.371979,107.45495" id="Stroke-35" stroke="#005246" stroke-width="2" mask="url(#mask-2)"></path>
                    <polyline id="Stroke-36" stroke="#005246" stroke-width="2" mask="url(#mask-2)" points="236.670549 92.6597889 236.670549 74.3246411 218.799 74.3246411 218.799 86.1332399"></polyline>
                    <path d="M227.734774,74.3251125 L227.734774,89.4559109" id="Stroke-37" stroke="#005246" stroke-width="2" mask="url(#mask-2)"></path>
                    <path d="M236.670549,80.0645393 L218.799,80.0645393" id="Stroke-38" stroke="#005246" stroke-width="2" mask="url(#mask-2)"></path>
                    <path d="M236.670549,85.1134814 L218.799,85.1134814" id="Stroke-39" stroke="#005246" stroke-width="2" mask="url(#mask-2)"></path>
                    <path d="M217.333192,90.407552 L238.097334,98.2387036" id="Stroke-40" stroke="#005246" stroke-width="2" mask="url(#mask-2)"></path>
                    <path d="M299.575931,26.9795843 L299.575931,45.9617301 C299.575931,46.6099067 299.047013,47.140233 298.400558,47.140233 L298.253636,47.140233 C297.607181,47.140233 297.078263,46.6099067 297.078263,45.9617301 L297.078263,26.859377" id="Stroke-41" stroke="#005246" stroke-width="2" mask="url(#mask-2)"></path>
                    <path d="M310.352927,14.9476591 C310.352927,8.28793935 304.969718,2.88921766 298.327685,2.88921766 C291.685651,2.88921766 286.301267,8.28793935 286.301267,14.9476591 C286.301267,21.6073789 291.685651,27.0061006 298.327685,27.0061006 C304.969718,27.0061006 310.352927,21.6073789 310.352927,14.9476591 Z" id="Stroke-42" stroke="#005246" stroke-width="2" stroke-linejoin="round" mask="url(#mask-2)"></path>
                    <path d="M309.769825,11.4161574 C308.549787,10.6548445 307.114657,10.2070134 305.572567,10.2070134 C302.348519,10.2070134 299.576989,12.1338656 298.327567,14.8998119 C299.117418,14.6358273 299.96016,14.4873359 300.83934,14.4873359 C304.742754,14.4873359 307.982082,17.3063148 308.661448,21.0221344" id="Stroke-43" stroke="#005246" stroke-width="2" stroke-linejoin="round" mask="url(#mask-2)"></path>
                    <path d="M288.336425,8.32258733 C288.515082,9.75211132 289.07456,11.1509942 290.047769,12.3507102 C292.08234,14.8597428 295.319317,15.8001881 298.249522,15.0282687 C297.545474,14.5804376 296.899019,14.0182917 296.344243,13.3335816 C293.884187,10.2977582 294.021705,5.99857965 296.470007,3.12656814" id="Stroke-44" stroke="#005246" stroke-width="2" stroke-linejoin="round" mask="url(#mask-2)"></path>
                    <path d="M296.390787,26.7752319 C297.617877,26.0268825 298.662784,24.9426599 299.356254,23.5614545 C300.809015,20.675301 300.340041,17.3271743 298.440638,14.9630975 C298.32075,15.789228 298.072746,16.6106445 297.676646,17.3978845 C295.920638,20.890967 291.951403,22.5231935 288.335955,21.4578269" id="Stroke-45" stroke="#005246" stroke-width="2" stroke-linejoin="round" mask="url(#mask-2)"></path>
                    <path d="M17.4863787,168.39934 L17.4863787,187.381486 C17.4863787,188.029663 16.9574608,188.559989 16.3110056,188.559989 L16.164084,188.559989 C15.5176287,188.559989 14.9887108,188.029663 14.9887108,187.381486 L14.9887108,168.279133" id="Stroke-46" stroke="#005246" stroke-width="2" mask="url(#mask-2)"></path>
                    <path d="M28.2639627,156.368005 C28.2639627,149.709463 22.8795784,144.310742 16.2375448,144.310742 C9.59551119,144.310742 4.21112687,149.709463 4.21112687,156.368005 C4.21112687,163.027724 9.59551119,168.425268 16.2375448,168.425268 C22.8795784,168.425268 28.2639627,163.027724 28.2639627,156.368005 Z" id="Stroke-47" stroke="#005246" stroke-width="2" stroke-linejoin="round" mask="url(#mask-2)"></path>
                    <path d="M27.6802724,152.837092 C26.4602351,152.075779 25.0251045,151.627948 23.4830149,151.627948 C20.2589664,151.627948 17.4874366,153.5548 16.2380149,156.319568 C17.0278657,156.055583 17.8706082,155.907092 18.7497873,155.907092 C22.6532015,155.907092 25.8925299,158.726071 26.5707201,162.441891" id="Stroke-48" stroke="#005246" stroke-width="2" stroke-linejoin="round" mask="url(#mask-2)"></path>
                    <path d="M6.24628545,149.743522 C6.42611754,151.171868 6.98441978,152.57075 7.95762873,153.771645 C9.99219963,156.280678 13.2303526,157.221123 16.1593825,156.449203 C15.4565093,156.001372 14.8100541,155.438048 14.255278,154.754516 C11.7940466,151.718693 11.9315653,147.419514 14.3798675,144.547503" id="Stroke-49" stroke="#005246" stroke-width="2" stroke-linejoin="round" mask="url(#mask-2)"></path>
                    <path d="M14.3012351,168.195577 C15.5283246,167.44605 16.5732313,166.363005 17.2678769,164.9818 C18.7194627,162.095646 18.2504888,158.746341 16.3510858,156.383443 C16.2300224,157.209574 15.983194,158.03099 15.5870933,158.81823 C13.8299104,162.312491 9.86185075,163.943539 6.24640299,162.876994" id="Stroke-50" stroke="#005246" stroke-width="2" stroke-linejoin="round" mask="url(#mask-2)"></path>
                    <path d="M284.923965,161.535504 L287.76014,185.983546 C287.76014,188.288698 289.637211,190.174302 291.931539,190.174302 L303.63708,190.174302 C305.931409,190.174302 307.808479,188.288698 307.808479,185.983546 L310.644655,161.535504 L284.923965,161.535504 Z" id="Stroke-51" stroke="#005246" stroke-width="2" mask="url(#mask-2)"></path>
                    <polygon id="Stroke-52" stroke="#005246" stroke-width="2" mask="url(#mask-2)" points="283.266101 161.536211 313.131157 161.536211 313.131157 157.339562 283.266101 157.339562"></polygon>
                    <polygon id="Stroke-53" stroke="#005246" stroke-width="2" mask="url(#mask-2)" points="285.920093 157.339562 309.734328 157.339562 309.734328 150.655094 285.920093 150.655094"></polygon>
                    <path d="M285.920328,170.12679 L309.648761,170.12679" id="Stroke-54" stroke="#005246" stroke-width="2" mask="url(#mask-2)"></path>
                    <polyline id="Stroke-55" stroke="#005246" stroke-width="2" mask="url(#mask-2)" points="303.824082 150.653916 303.824082 143.783244 301.064306 143.783244 301.064306 150.653916"></polyline>
                    <polyline id="Stroke-56" stroke="#005246" stroke-width="2" mask="url(#mask-2)" points="301.064776 161.536565 301.064776 170.126672 303.824552 170.126672 303.824552 161.536565"></polyline>
                    <path d="M303.344295,178.150745 C303.344295,177.363505 302.708418,176.725935 301.923269,176.725935 C301.139295,176.725935 300.503418,177.363505 300.503418,178.150745 C300.503418,178.936806 301.139295,179.574376 301.923269,179.574376 C302.708418,179.574376 303.344295,178.936806 303.344295,178.150745 Z" id="Stroke-57" stroke="#005246" stroke-width="2" mask="url(#mask-2)"></path>
                    <path d="M293.206701,185.590044 C293.206701,185.006685 292.735377,184.534106 292.153567,184.534106 C291.571757,184.534106 291.100433,185.006685 291.100433,185.590044 C291.100433,186.172225 291.571757,186.645983 292.153567,186.645983 C292.735377,186.645983 293.206701,186.172225 293.206701,185.590044 Z" id="Stroke-58" stroke="#005246" stroke-width="2" mask="url(#mask-2)"></path>
                    <path d="M294.4372,177.583296 C294.4372,176.951618 293.925912,176.437791 293.294737,176.437791 C292.664737,176.437791 292.15345,176.951618 292.15345,177.583296 C292.15345,178.216152 292.664737,178.7288 293.294737,178.7288 C293.925912,178.7288 294.4372,178.216152 294.4372,177.583296 Z" id="Stroke-59" stroke="#005246" stroke-width="2" mask="url(#mask-2)"></path>
                    <path d="M73.3568004,231.067174 L76.1929757,255.515216 C76.1929757,257.820368 78.0700466,259.705972 80.3631996,259.705972 L92.069916,259.705972 C94.3642444,259.705972 96.2413153,257.820368 96.2413153,255.515216 L99.0774907,231.067174 L73.3568004,231.067174 Z" id="Stroke-60" stroke="#005246" stroke-width="2" mask="url(#mask-2)"></path>
                    <polygon id="Stroke-61" stroke="#005246" stroke-width="2" mask="url(#mask-2)" points="71.6977612 231.067881 101.563993 231.067881 101.563993 226.871232 71.6977612 226.871232"></polygon>
                    <polygon id="Stroke-62" stroke="#005246" stroke-width="2" mask="url(#mask-2)" points="74.3529291 226.871232 98.1671642 226.871232 98.1671642 220.186764 74.3529291 220.186764"></polygon>
                    <path d="M74.3531642,239.65846 L98.0804216,239.65846" id="Stroke-63" stroke="#005246" stroke-width="2" mask="url(#mask-2)"></path>
                    <polyline id="Stroke-64" stroke="#005246" stroke-width="2" mask="url(#mask-2)" points="92.2563302 220.185585 92.2563302 213.314914 89.4977295 213.314914 89.4977295 220.185585"></polyline>
                    <polyline id="Stroke-65" stroke="#005246" stroke-width="2" mask="url(#mask-2)" points="89.4976119 231.068235 89.4976119 239.658342 92.2562127 239.658342 92.2562127 231.068235"></polyline>
                    <path d="M247.832009,236.541909 C247.832009,225.59951 238.984976,216.728919 228.071636,216.728919 C217.157121,216.728919 208.310088,225.59951 208.310088,236.541909 C208.310088,247.484308 217.157121,256.354899 228.071636,256.354899 C238.984976,256.354899 247.832009,247.484308 247.832009,236.541909 Z" id="Stroke-66" stroke="#005246" stroke-width="2" mask="url(#mask-2)"></path>
                    <path d="M233.35106,236.541909 C233.35106,233.618043 230.987384,231.248074 228.071284,231.248074 C225.154007,231.248074 222.791507,233.618043 222.791507,236.541909 C222.791507,239.464596 225.154007,241.835744 228.071284,241.835744 C230.987384,241.835744 233.35106,239.464596 233.35106,236.541909 Z" id="Stroke-67" stroke="#005246" stroke-width="2" mask="url(#mask-2)"></path>
                    <path d="M213.158502,249.43862 C216.889136,249.43862 216.889136,246.330907 220.620946,246.330907 C224.349229,246.330907 224.349229,249.43862 228.078688,249.43862 C231.811674,249.43862 231.811674,246.330907 235.543483,246.330907 C239.276468,246.330907 239.276468,249.43862 243.008278,249.43862" id="Stroke-68" stroke="#005246" stroke-width="2" mask="url(#mask-2)"></path>
                    <path d="M220.871888,227.34063 C220.871888,226.670062 220.328866,226.125593 219.660078,226.125593 C218.990116,226.125593 218.447093,226.670062 218.447093,227.34063 C218.447093,228.011198 218.990116,228.555666 219.660078,228.555666 C220.328866,228.555666 220.871888,228.011198 220.871888,227.34063 Z" id="Stroke-69" stroke="#005246" stroke-width="2" mask="url(#mask-2)"></path>
                    <path d="M238.796328,227.892994 C238.796328,226.957263 238.039388,226.199486 237.107317,226.199486 C236.174071,226.199486 235.417131,226.957263 235.417131,227.892994 C235.417131,228.828726 236.174071,229.586503 237.107317,229.586503 C238.039388,229.586503 238.796328,228.828726 238.796328,227.892994 Z" id="Stroke-70" stroke="#005246" stroke-width="2" mask="url(#mask-2)"></path>
                    <path d="M240.118623,239.457054 C240.118623,238.887837 239.657877,238.425864 239.090172,238.425864 C238.522466,238.425864 238.06172,238.887837 238.06172,239.457054 C238.06172,240.026271 238.522466,240.488244 239.090172,240.488244 C239.657877,240.488244 240.118623,240.026271 240.118623,239.457054 Z" id="Stroke-71" stroke="#005246" stroke-width="2" mask="url(#mask-2)"></path>
                    <path d="M216.706483,240.314415 C216.706483,239.475321 216.027118,238.794146 215.189076,238.794146 C214.352211,238.794146 213.672845,239.475321 213.672845,240.314415 C213.672845,241.154687 214.352211,241.835862 215.189076,241.835862 C216.027118,241.835862 216.706483,241.154687 216.706483,240.314415 Z" id="Stroke-72" stroke="#005246" stroke-width="2" mask="url(#mask-2)"></path>
                    <path d="M91.7765429,247.682415 C91.7765429,246.895175 91.140666,246.257605 90.3566922,246.257605 C89.5727183,246.257605 88.935666,246.895175 88.935666,247.682415 C88.935666,248.468476 89.5727183,249.106046 90.3566922,249.106046 C91.140666,249.106046 91.7765429,248.468476 91.7765429,247.682415 Z" id="Stroke-73" stroke="#005246" stroke-width="2" mask="url(#mask-2)"></path>
                    <path d="M81.6389496,255.121714 C81.6389496,254.538355 81.167625,254.065775 80.5858153,254.065775 C80.0040056,254.065775 79.532681,254.538355 79.532681,255.121714 C79.532681,255.703894 80.0040056,256.177653 80.5858153,256.177653 C81.167625,256.177653 81.6389496,255.703894 81.6389496,255.121714 Z" id="Stroke-74" stroke="#005246" stroke-width="2" mask="url(#mask-2)"></path>
                    <path d="M82.8706231,247.114965 C82.8706231,246.483288 82.3593358,245.969461 81.7281604,245.969461 C81.0981604,245.969461 80.5868731,246.483288 80.5868731,247.114965 C80.5868731,247.747821 81.0981604,248.26047 81.7281604,248.26047 C82.3593358,248.26047 82.8706231,247.747821 82.8706231,247.114965 Z" id="Stroke-75" stroke="#005246" stroke-width="2" mask="url(#mask-2)"></path>
                    <polygon id="Stroke-76" stroke="#005246" stroke-width="2" mask="url(#mask-2)" points="287.85558 300.076296 287.85558 316.489305 287.85558 320.330046 287.85558 320.731916 287.85558 326.761136 289.939517 324.798929 292.021103 326.761136 294.101513 324.798929 296.181924 326.761136 298.261159 324.798929 300.340394 326.761136 302.420804 324.798929 304.500039 326.761136 306.579274 324.798929 308.657334 326.761136 308.657334 321.034791 308.657334 316.489305 308.657334 307.809631"></polygon>
                    <path d="M308.619722,321.941884 L287.894368,321.941884" id="Stroke-77" stroke="#005246" stroke-width="2" mask="url(#mask-2)"></path>
                    <polyline id="Stroke-78" stroke="#005246" stroke-width="2" mask="url(#mask-2)" points="307.192937 307.147313 307.192937 288.812165 289.321388 288.812165 289.321388 300.621942"></polyline>
                    <path d="M298.257162,288.812636 L298.257162,303.943435" id="Stroke-79" stroke="#005246" stroke-width="2" mask="url(#mask-2)"></path>
                    <path d="M307.192937,294.552063 L289.321388,294.552063" id="Stroke-80" stroke="#005246" stroke-width="2" mask="url(#mask-2)"></path>
                    <path d="M307.192937,299.601005 L289.321388,299.601005" id="Stroke-81" stroke="#005246" stroke-width="2" mask="url(#mask-2)"></path>
                    <path d="M287.85558,304.895076 L308.619722,312.726228" id="Stroke-82" stroke="#005246" stroke-width="2" mask="url(#mask-2)"></path>
                    <polygon id="Stroke-83" stroke="#005246" stroke-width="2" mask="url(#mask-2)" points="1.83816604 321.50796 1.83816604 321.911008 1.83816604 327.93905 4.80363246 325.976843 7.76439739 327.93905 10.7239869 325.976843 13.6824011 327.93905 16.6384646 325.976843 19.5980541 327.93905 22.5576437 325.976843 25.5160578 327.93905 28.4721213 325.976843 31.4305354 327.93905 31.4305354 322.213883 31.4305354 317.667219 31.4305354 287.593004 28.465069 289.554033 25.5043041 287.593004 22.5447146 289.554033 19.5863004 287.593004 16.6302369 289.554033 13.6706474 287.593004 10.7110578 289.554033 7.75264366 287.593004 4.79658022 289.554033 1.83816604 287.593004 1.83816604 317.667219"></polygon>
                    <path d="M31.4301828,323.120387 L1.83781343,323.120387" id="Stroke-84" stroke="#005246" stroke-width="2" mask="url(#mask-2)"></path>
                    <path d="M31.4301828,292.480491 L1.83781343,292.480491" id="Stroke-85" stroke="#005246" stroke-width="2" mask="url(#mask-2)"></path>
                    <path d="M23.4964142,307.76532 C23.4964142,303.864475 20.4239888,300.702552 16.6345858,300.702552 C12.8440075,300.702552 9.77158209,303.864475 9.77158209,307.76532 C9.77158209,311.667343 12.8440075,314.829266 16.6345858,314.829266 C20.4239888,314.829266 23.4964142,311.667343 23.4964142,307.76532 Z" id="Stroke-86" stroke="#005246" stroke-width="2" mask="url(#mask-2)"></path>
                    <path d="M31.4301828,320.503286 L26.2491381,320.503286" id="Stroke-87" stroke="#005246" stroke-width="2" stroke-linecap="round" mask="url(#mask-2)"></path>
                    <path d="M31.4301828,317.667572 L22.919306,317.667572" id="Stroke-88" stroke="#005246" stroke-width="2" stroke-linecap="round" mask="url(#mask-2)"></path>
                    <path d="M18.6514086,305.385333 C18.2106437,305.082458 17.6817257,304.906861 17.1116698,304.906861 C15.5789832,304.906861 14.3354384,306.186715 14.3354384,307.765909 C14.3354384,309.343924 15.5789832,310.623779 17.1116698,310.623779 C17.808666,310.623779 18.4457183,310.360972 18.9334981,309.924926" id="Stroke-89" stroke="#005246" stroke-width="2" mask="url(#mask-2)"></path>
                    <path d="M78.3413228,391.402255 L77.4550914,379.844677" id="Stroke-90" stroke="#005246" stroke-width="2" mask="url(#mask-2)"></path>
                    <path d="M83.2907015,390.733572 L82.1023993,375.235081" id="Stroke-91" stroke="#005246" stroke-width="2" mask="url(#mask-2)"></path>
                    <path d="M87.9382444,386.123151 L86.746416,370.582234" id="Stroke-92" stroke="#005246" stroke-width="2" mask="url(#mask-2)"></path>
                    <path d="M92.5857873,381.511552 L91.3974851,366.01306" id="Stroke-93" stroke="#005246" stroke-width="2" mask="url(#mask-2)"></path>
                    <path d="M97.2327425,376.901131 L96.3488619,365.374194" id="Stroke-94" stroke="#005246" stroke-width="2" mask="url(#mask-2)"></path>
                    <polygon id="Stroke-95" stroke="#005246" stroke-width="2" stroke-linecap="round" stroke-linejoin="round" mask="url(#mask-2)" points="98.8809683 366.904598 105.906174 365.539891 100.256155 359.934932"></polygon>
                    <polygon id="Stroke-96" stroke="#005246" stroke-width="2" stroke-linecap="round" stroke-linejoin="round" mask="url(#mask-2)" points="76.2941754 389.314537 69.2689701 390.680422 74.9189888 396.285382"></polygon>
                    <path d="M101.635808,372.340207 L81.3312369,392.697665 C80.8740168,393.157281 80.1264795,393.157281 79.6692593,392.697665 L72.927319,385.938951 C72.4712743,385.480514 72.4712743,384.730986 72.927319,384.272548 L93.2318899,363.915089 C93.6891101,363.456652 94.4366474,363.456652 94.8938675,363.915089 L101.635808,370.673803 C102.093028,371.132241 102.093028,371.881769 101.635808,372.340207 Z" id="Stroke-97" stroke="#005246" stroke-width="2" mask="url(#mask-2)"></path>
                    <path d="M214.401576,373.666022 L217.237752,398.114064 C217.237752,400.419216 219.114823,402.304821 221.409151,402.304821 L233.114692,402.304821 C235.409021,402.304821 237.286091,400.419216 237.286091,398.114064 L240.122267,373.666022 L214.401576,373.666022 Z" id="Stroke-98" stroke="#005246" stroke-width="2" mask="url(#mask-2)"></path>
                    <polygon id="Stroke-99" stroke="#005246" stroke-width="2" mask="url(#mask-2)" points="212.743713 373.666729 242.608769 373.666729 242.608769 369.470081 212.743713 369.470081"></polygon>
                    <polygon id="Stroke-100" stroke="#005246" stroke-width="2" mask="url(#mask-2)" points="215.397705 369.470081 239.21194 369.470081 239.21194 362.785612 215.397705 362.785612"></polygon>
                    <path d="M215.39794,382.257308 L239.125198,382.257308" id="Stroke-101" stroke="#005246" stroke-width="2" mask="url(#mask-2)"></path>
                    <polyline id="Stroke-102" stroke="#005246" stroke-width="2" mask="url(#mask-2)" points="233.301694 362.784434 233.301694 355.913762 230.541918 355.913762 230.541918 362.784434"></polyline>
                    <polyline id="Stroke-103" stroke="#005246" stroke-width="2" mask="url(#mask-2)" points="230.542271 373.667083 230.542271 382.25719 233.302047 382.25719 233.302047 373.667083"></polyline>
                    <path d="M232.821907,390.281263 C232.821907,389.494023 232.18603,388.856453 231.400881,388.856453 C230.616907,388.856453 229.98103,389.494023 229.98103,390.281263 C229.98103,391.067324 230.616907,391.704894 231.400881,391.704894 C232.18603,391.704894 232.821907,391.067324 232.821907,390.281263 Z" id="Stroke-104" stroke="#005246" stroke-width="2" mask="url(#mask-2)"></path>
                    <path d="M222.684313,397.720562 C222.684313,397.137203 222.212989,396.664624 221.631179,396.664624 C221.049369,396.664624 220.578045,397.137203 220.578045,397.720562 C220.578045,398.302743 221.049369,398.776501 221.631179,398.776501 C222.212989,398.776501 222.684313,398.302743 222.684313,397.720562 Z" id="Stroke-105" stroke="#005246" stroke-width="2" mask="url(#mask-2)"></path>
                    <path d="M223.914812,389.713814 C223.914812,389.082136 223.403524,388.568309 222.772349,388.568309 C222.142349,388.568309 221.631062,389.082136 221.631062,389.713814 C221.631062,390.34667 222.142349,390.859319 222.772349,390.859319 C223.403524,390.859319 223.914812,390.34667 223.914812,389.713814 Z" id="Stroke-106" stroke="#005246" stroke-width="2" mask="url(#mask-2)"></path>
                    <path d="M158.531155,309.819686 L158.531155,328.801832 C158.531155,329.450008 158.002237,329.980335 157.355782,329.980335 L157.20886,329.980335 C156.562405,329.980335 156.033487,329.450008 156.033487,328.801832 L156.033487,309.699479" id="Stroke-107" stroke="#005246" stroke-width="2" mask="url(#mask-2)"></path>
                    <path d="M169.308151,297.78835 C169.308151,291.129809 163.924942,285.731087 157.282909,285.731087 C150.640875,285.731087 145.256491,291.129809 145.256491,297.78835 C145.256491,304.44807 150.640875,309.845613 157.282909,309.845613 C163.924942,309.845613 169.308151,304.44807 169.308151,297.78835 Z" id="Stroke-108" stroke="#005246" stroke-width="2" stroke-linejoin="round" mask="url(#mask-2)"></path>
                    <path d="M168.725049,294.257438 C167.505011,293.496125 166.069881,293.048294 164.527791,293.048294 C161.303743,293.048294 158.532213,294.975146 157.282791,297.739914 C158.072642,297.475929 158.915384,297.327438 159.794563,297.327438 C163.697978,297.327438 166.937306,300.146417 167.616672,303.862236" id="Stroke-109" stroke="#005246" stroke-width="2" stroke-linejoin="round" mask="url(#mask-2)"></path>
                    <path d="M147.291649,291.163868 C147.470306,292.592213 148.029784,293.991096 149.002993,295.19199 C151.037563,297.701023 154.274541,298.641468 157.204746,297.869549 C156.500698,297.421718 155.854243,296.858393 155.299466,296.174862 C152.83941,293.139038 152.976929,288.83986 155.425231,285.967848" id="Stroke-110" stroke="#005246" stroke-width="2" stroke-linejoin="round" mask="url(#mask-2)"></path>
                    <path d="M155.346011,309.615923 C156.573101,308.866395 157.618007,307.783351 158.311478,306.402145 C159.764239,303.515992 159.295265,300.166687 157.395862,297.803788 C157.275974,298.629919 157.02797,299.451336 156.631869,300.238575 C154.875862,303.732836 150.906627,305.363884 147.291179,304.297339" id="Stroke-111" stroke="#005246" stroke-width="2" stroke-linejoin="round" mask="url(#mask-2)"></path>
                    <path d="M4.00978545,444.376195 L6.84596082,468.824237 C6.84596082,471.129389 8.72303172,473.014993 11.0161847,473.014993 L22.7229011,473.014993 C25.0172295,473.014993 26.8943004,471.129389 26.8943004,468.824237 L29.7304757,444.376195 L4.00978545,444.376195 Z" id="Stroke-112" stroke="#005246" stroke-width="2" mask="url(#mask-2)"></path>
                    <polygon id="Stroke-113" stroke="#005246" stroke-width="2" mask="url(#mask-2)" points="2.35074627 444.376902 32.2169776 444.376902 32.2169776 440.180253 2.35074627 440.180253"></polygon>
                    <polygon id="Stroke-114" stroke="#005246" stroke-width="2" mask="url(#mask-2)" points="5.00591418 440.180253 28.8201493 440.180253 28.8201493 433.495785 5.00591418 433.495785"></polygon>
                    <path d="M5.00614925,452.967481 L28.7334067,452.967481" id="Stroke-115" stroke="#005246" stroke-width="2" mask="url(#mask-2)"></path>
                    <polyline id="Stroke-116" stroke="#005246" stroke-width="2" mask="url(#mask-2)" points="22.9093153 433.494607 22.9093153 426.623935 20.1507146 426.623935 20.1507146 433.494607"></polyline>
                    <polyline id="Stroke-117" stroke="#005246" stroke-width="2" mask="url(#mask-2)" points="20.1504795 444.377256 20.1504795 452.967363 22.9090802 452.967363 22.9090802 444.377256"></polyline>
                    <path d="M178.484994,449.85093 C178.484994,438.908531 169.637961,430.03794 158.724621,430.03794 C147.810106,430.03794 138.963073,438.908531 138.963073,449.85093 C138.963073,460.793329 147.810106,469.663921 158.724621,469.663921 C169.637961,469.663921 178.484994,460.793329 178.484994,449.85093 Z" id="Stroke-118" stroke="#005246" stroke-width="2" mask="url(#mask-2)"></path>
                    <path d="M164.004045,449.85093 C164.004045,446.927064 161.640369,444.557095 158.724269,444.557095 C155.806993,444.557095 153.444493,446.927064 153.444493,449.85093 C153.444493,452.773617 155.806993,455.144765 158.724269,455.144765 C161.640369,455.144765 164.004045,452.773617 164.004045,449.85093 Z" id="Stroke-119" stroke="#005246" stroke-width="2" mask="url(#mask-2)"></path>
                    <path d="M143.811487,462.747641 C147.542121,462.747641 147.542121,459.639929 151.273931,459.639929 C155.002215,459.639929 155.002215,462.747641 158.731674,462.747641 C162.464659,462.747641 162.464659,459.639929 166.196468,459.639929 C169.929453,459.639929 169.929453,462.747641 173.660088,462.747641" id="Stroke-120" stroke="#005246" stroke-width="2" mask="url(#mask-2)"></path>
                    <path d="M151.524873,440.649651 C151.524873,439.979083 150.981851,439.434615 150.313063,439.434615 C149.643101,439.434615 149.101254,439.979083 149.101254,440.649651 C149.101254,441.320219 149.643101,441.864688 150.313063,441.864688 C150.981851,441.864688 151.524873,441.320219 151.524873,440.649651 Z" id="Stroke-121" stroke="#005246" stroke-width="2" mask="url(#mask-2)"></path>
                    <path d="M169.449313,441.202015 C169.449313,440.266284 168.692373,439.508507 167.760302,439.508507 C166.827056,439.508507 166.070116,440.266284 166.070116,441.202015 C166.070116,442.137747 166.827056,442.895524 167.760302,442.895524 C168.692373,442.895524 169.449313,442.137747 169.449313,441.202015 Z" id="Stroke-122" stroke="#005246" stroke-width="2" mask="url(#mask-2)"></path>
                    <path d="M170.771608,452.766075 C170.771608,452.196858 170.310862,451.734885 169.743157,451.734885 C169.175451,451.734885 168.714705,452.196858 168.714705,452.766075 C168.714705,453.335292 169.175451,453.797265 169.743157,453.797265 C170.310862,453.797265 170.771608,453.335292 170.771608,452.766075 Z" id="Stroke-123" stroke="#005246" stroke-width="2" mask="url(#mask-2)"></path>
                    <path d="M147.359468,453.623436 C147.359468,452.784342 146.680103,452.103167 145.842062,452.103167 C145.005196,452.103167 144.32583,452.784342 144.32583,453.623436 C144.32583,454.463708 145.005196,455.144883 145.842062,455.144883 C146.680103,455.144883 147.359468,454.463708 147.359468,453.623436 Z" id="Stroke-124" stroke="#005246" stroke-width="2" mask="url(#mask-2)"></path>
                    <path d="M22.429528,460.991436 C22.429528,460.204196 21.7936511,459.566626 21.0096772,459.566626 C20.2257034,459.566626 19.5886511,460.204196 19.5886511,460.991436 C19.5886511,461.777497 20.2257034,462.415067 21.0096772,462.415067 C21.7936511,462.415067 22.429528,461.777497 22.429528,460.991436 Z" id="Stroke-125" stroke="#005246" stroke-width="2" mask="url(#mask-2)"></path>
                    <path d="M12.2919347,468.430735 C12.2919347,467.847376 11.8206101,467.374797 11.2388004,467.374797 C10.6569907,467.374797 10.185666,467.847376 10.185666,468.430735 C10.185666,469.012916 10.6569907,469.486674 11.2388004,469.486674 C11.8206101,469.486674 12.2919347,469.012916 12.2919347,468.430735 Z" id="Stroke-126" stroke="#005246" stroke-width="2" mask="url(#mask-2)"></path>
                    <path d="M13.5236082,460.423987 C13.5236082,459.792309 13.0123209,459.278482 12.3811455,459.278482 C11.7511455,459.278482 11.2398582,459.792309 11.2398582,460.423987 C11.2398582,461.056843 11.7511455,461.569491 12.3811455,461.569491 C13.0123209,461.569491 13.5236082,461.056843 13.5236082,460.423987 Z" id="Stroke-127" stroke="#005246" stroke-width="2" mask="url(#mask-2)"></path>
                    <path d="M300.751304,452.418534 L300.751304,471.40068 C300.751304,472.048857 300.222386,472.579183 299.575931,472.579183 L299.429009,472.579183 C298.782554,472.579183 298.253636,472.048857 298.253636,471.40068 L298.253636,452.298327" id="Stroke-128" stroke="#005246" stroke-width="2" mask="url(#mask-2)"></path>
                    <path d="M311.5283,440.387198 C311.5283,433.728657 306.145091,428.329936 299.503058,428.329936 C292.861024,428.329936 287.47664,433.728657 287.47664,440.387198 C287.47664,447.046918 292.861024,452.444461 299.503058,452.444461 C306.145091,452.444461 311.5283,447.046918 311.5283,440.387198 Z" id="Stroke-129" stroke="#005246" stroke-width="2" stroke-linejoin="round" mask="url(#mask-2)"></path>
                    <path d="M310.945198,436.856286 C309.72516,436.094973 308.29003,435.647142 306.74794,435.647142 C303.523892,435.647142 300.752362,437.573994 299.50294,440.338762 C300.292791,440.074777 301.135534,439.926286 302.014713,439.926286 C305.918127,439.926286 309.157455,442.745265 309.836821,446.461084" id="Stroke-130" stroke="#005246" stroke-width="2" stroke-linejoin="round" mask="url(#mask-2)"></path>
                    <path d="M289.511799,433.762716 C289.690455,435.191061 290.249933,436.589944 291.223142,437.790839 C293.257713,440.299871 296.49469,441.240317 299.424896,440.468397 C298.720847,440.020566 298.074392,439.457242 297.519616,438.77371 C295.05956,435.737887 295.197078,431.438708 297.645381,428.566697" id="Stroke-131" stroke="#005246" stroke-width="2" stroke-linejoin="round" mask="url(#mask-2)"></path>
                    <path d="M297.56616,452.214771 C298.79325,451.465243 299.838157,450.382199 300.531627,449.000994 C301.984388,446.11484 301.515414,442.765535 299.616011,440.402637 C299.496123,441.228767 299.248119,442.050184 298.852019,442.837424 C297.096011,446.331685 293.126776,447.962733 289.511328,446.896188" id="Stroke-132" stroke="#005246" stroke-width="2" stroke-linejoin="round" mask="url(#mask-2)"></path>
                    <polygon id="Stroke-133" stroke="#005246" stroke-width="2" mask="url(#mask-2)" points="73.5359272 535.995484 73.5359272 536.398532 73.5359272 542.426574 76.5013937 540.464367 79.4621586 542.426574 82.4217481 540.464367 85.3801623 542.426574 88.3362257 540.464367 91.2958153 542.426574 94.2554049 540.464367 97.213819 542.426574 100.169882 540.464367 103.128297 542.426574 103.128297 536.701407 103.128297 532.154743 103.128297 502.080528 100.16283 504.041557 97.2020653 502.080528 94.2424757 504.041557 91.2840616 502.080528 88.3279981 504.041557 85.3684086 502.080528 82.408819 504.041557 79.4504049 502.080528 76.4943414 504.041557 73.5359272 502.080528 73.5359272 532.154743"></polygon>
                    <path d="M103.127944,537.607911 L73.5355746,537.607911" id="Stroke-134" stroke="#005246" stroke-width="2" mask="url(#mask-2)"></path>
                    <path d="M103.127944,506.968015 L73.5355746,506.968015" id="Stroke-135" stroke="#005246" stroke-width="2" mask="url(#mask-2)"></path>
                    <path d="M95.1941754,522.252844 C95.1941754,518.351999 92.12175,515.190076 88.332347,515.190076 C84.5417687,515.190076 81.4693433,518.351999 81.4693433,522.252844 C81.4693433,526.154867 84.5417687,529.31679 88.332347,529.31679 C92.12175,529.31679 95.1941754,526.154867 95.1941754,522.252844 Z" id="Stroke-136" stroke="#005246" stroke-width="2" mask="url(#mask-2)"></path>
                    <path d="M103.127944,534.99081 L97.9468993,534.99081" id="Stroke-137" stroke="#005246" stroke-width="2" stroke-linecap="round" mask="url(#mask-2)"></path>
                    <path d="M103.127944,532.155096 L94.6170672,532.155096" id="Stroke-138" stroke="#005246" stroke-width="2" stroke-linecap="round" mask="url(#mask-2)"></path>
                    <path d="M90.3492873,519.872857 C89.9085224,519.569982 89.3796045,519.394385 88.8095485,519.394385 C87.2768619,519.394385 86.0333172,520.674239 86.0333172,522.253433 C86.0333172,523.831448 87.2768619,525.111302 88.8095485,525.111302 C89.5065448,525.111302 90.143597,524.848496 90.6313769,524.41245" id="Stroke-139" stroke="#005246" stroke-width="2" mask="url(#mask-2)"></path>
                    <polygon id="Stroke-140" stroke="#005246" stroke-width="2" mask="url(#mask-2)" points="219.683938 512.206814 219.683938 528.619823 219.683938 532.460564 219.683938 532.862434 219.683938 538.891655 221.767875 536.929447 223.849461 538.891655 225.929871 536.929447 228.010282 538.891655 230.089517 536.929447 232.168752 538.891655 234.249162 536.929447 236.328397 538.891655 238.407632 536.929447 240.485692 538.891655 240.485692 533.165309 240.485692 528.619823 240.485692 519.94015"></polygon>
                    <path d="M240.44808,534.072403 L219.722726,534.072403" id="Stroke-141" stroke="#005246" stroke-width="2" mask="url(#mask-2)"></path>
                    <polyline id="Stroke-142" stroke="#005246" stroke-width="2" mask="url(#mask-2)" points="239.021295 519.277831 239.021295 500.942683 221.149746 500.942683 221.149746 512.752461"></polyline>
                    <path d="M230.085521,500.943155 L230.085521,516.073953" id="Stroke-143" stroke="#005246" stroke-width="2" mask="url(#mask-2)"></path>
                    <path d="M239.021295,506.682582 L221.149746,506.682582" id="Stroke-144" stroke="#005246" stroke-width="2" mask="url(#mask-2)"></path>
                    <path d="M239.021295,511.731524 L221.149746,511.731524" id="Stroke-145" stroke="#005246" stroke-width="2" mask="url(#mask-2)"></path>
                    <path d="M219.683938,517.025594 L240.44808,524.856746" id="Stroke-146" stroke="#005246" stroke-width="2" mask="url(#mask-2)"></path>
                    <polygon id="Stroke-147" stroke="#005246" stroke-width="2" mask="url(#mask-2)" points="290.206326 581.738484 290.206326 598.151493 290.206326 601.992234 290.206326 602.394104 290.206326 608.423324 292.290263 606.461117 294.371849 608.423324 296.452259 606.461117 298.53267 608.423324 300.611905 606.461117 302.69114 608.423324 304.77155 606.461117 306.850785 608.423324 308.930021 606.461117 311.00808 608.423324 311.00808 602.696979 311.00808 598.151493 311.00808 589.47182"></polygon>
                    <path d="M310.970468,603.604073 L290.245114,603.604073" id="Stroke-148" stroke="#005246" stroke-width="2" mask="url(#mask-2)"></path>
                    <polyline id="Stroke-149" stroke="#005246" stroke-width="2" mask="url(#mask-2)" points="309.543683 588.809501 309.543683 570.474353 291.672134 570.474353 291.672134 582.284131"></polyline>
                    <path d="M300.607909,570.474825 L300.607909,585.605623" id="Stroke-150" stroke="#005246" stroke-width="2" mask="url(#mask-2)"></path>
                    <path d="M309.543683,576.214251 L291.672134,576.214251" id="Stroke-151" stroke="#005246" stroke-width="2" mask="url(#mask-2)"></path>
                    <path d="M309.543683,581.263193 L291.672134,581.263193" id="Stroke-152" stroke="#005246" stroke-width="2" mask="url(#mask-2)"></path>
                    <path d="M290.206326,586.557264 L310.970468,594.388416" id="Stroke-153" stroke="#005246" stroke-width="2" mask="url(#mask-2)"></path>
                    <polygon id="Stroke-154" stroke="#005246" stroke-width="2" mask="url(#mask-2)" points="4.18891231 603.170148 4.18891231 603.573196 4.18891231 609.601238 7.15437873 607.639031 10.1151437 609.601238 13.0747332 607.639031 16.0331474 609.601238 18.9892108 607.639031 21.9488004 609.601238 24.9083899 607.639031 27.8668041 609.601238 30.8228675 607.639031 33.7812817 609.601238 33.7812817 603.876071 33.7812817 599.329407 33.7812817 569.255192 30.8158153 571.216221 27.8550504 569.255192 24.8954608 571.216221 21.9370466 569.255192 18.9809832 571.216221 16.0213937 569.255192 13.0618041 571.216221 10.1033899 569.255192 7.14732649 571.216221 4.18891231 569.255192 4.18891231 599.329407"></polygon>
                    <path d="M33.7809291,604.782575 L4.1885597,604.782575" id="Stroke-155" stroke="#005246" stroke-width="2" mask="url(#mask-2)"></path>
                    <path d="M33.7809291,574.142679 L4.1885597,574.142679" id="Stroke-156" stroke="#005246" stroke-width="2" mask="url(#mask-2)"></path>
                    <path d="M25.8471604,589.427508 C25.8471604,585.526663 22.7747351,582.36474 18.9853321,582.36474 C15.1947537,582.36474 12.1223284,585.526663 12.1223284,589.427508 C12.1223284,593.329531 15.1947537,596.491454 18.9853321,596.491454 C22.7747351,596.491454 25.8471604,593.329531 25.8471604,589.427508 Z" id="Stroke-157" stroke="#005246" stroke-width="2" mask="url(#mask-2)"></path>
                    <path d="M33.7809291,602.165474 L28.5998843,602.165474" id="Stroke-158" stroke="#005246" stroke-width="2" stroke-linecap="round" mask="url(#mask-2)"></path>
                    <path d="M33.7809291,599.32976 L25.2700522,599.32976" id="Stroke-159" stroke="#005246" stroke-width="2" stroke-linecap="round" mask="url(#mask-2)"></path>
                    <path d="M21.0021549,587.047521 C20.5613899,586.744646 20.032472,586.569049 19.462416,586.569049 C17.9297295,586.569049 16.6861847,587.848903 16.6861847,589.428097 C16.6861847,591.006112 17.9297295,592.285967 19.462416,592.285967 C20.1594123,592.285967 20.7964646,592.02316 21.2842444,591.587114" id="Stroke-160" stroke="#005246" stroke-width="2" mask="url(#mask-2)"></path>
                    <path d="M160.881901,591.481874 L160.881901,610.46402 C160.881901,611.112197 160.352983,611.642523 159.706528,611.642523 L159.559606,611.642523 C158.913151,611.642523 158.384233,611.112197 158.384233,610.46402 L158.384233,591.361667" id="Stroke-161" stroke="#005246" stroke-width="2" mask="url(#mask-2)"></path>
                    <path d="M171.658897,579.450538 C171.658897,572.791997 166.275688,567.393275 159.633655,567.393275 C152.991621,567.393275 147.607237,572.791997 147.607237,579.450538 C147.607237,586.110258 152.991621,591.507801 159.633655,591.507801 C166.275688,591.507801 171.658897,586.110258 171.658897,579.450538 Z" id="Stroke-162" stroke="#005246" stroke-width="2" stroke-linejoin="round" mask="url(#mask-2)"></path>
                    <path d="M171.075795,575.919626 C169.855757,575.158313 168.420627,574.710482 166.878537,574.710482 C163.654489,574.710482 160.882959,576.637334 159.633537,579.402102 C160.423388,579.138117 161.266131,578.989626 162.14531,578.989626 C166.048724,578.989626 169.288052,581.808605 169.967418,585.524424" id="Stroke-163" stroke="#005246" stroke-width="2" stroke-linejoin="round" mask="url(#mask-2)"></path>
                    <path d="M149.642396,572.826056 C149.821052,574.254401 150.38053,575.653284 151.353739,576.854179 C153.38831,579.363211 156.625287,580.303656 159.555493,579.531737 C158.851444,579.083906 158.204989,578.520582 157.650213,577.83705 C155.190157,574.801226 155.327675,570.502048 157.775978,567.630036" id="Stroke-164" stroke="#005246" stroke-width="2" stroke-linejoin="round" mask="url(#mask-2)"></path>
                    <path d="M157.696757,591.278111 C158.923847,590.528583 159.968754,589.445539 160.662224,588.064334 C162.114985,585.17818 161.646011,581.828875 159.746608,579.465977 C159.62672,580.292107 159.378716,581.113524 158.982616,581.900764 C157.226608,585.395025 153.257373,587.026073 149.641925,585.959527" id="Stroke-165" stroke="#005246" stroke-width="2" stroke-linejoin="round" mask="url(#mask-2)"></path>
                </g>
            </g>
        </g>
    </g>
</svg>
