<?xml version="1.0" standalone="no"?>
<!DOCTYPE svg PUBLIC "-//W3C//DTD SVG 20010904//EN"
 "http://www.w3.org/TR/2001/REC-SVG-20010904/DTD/svg10.dtd">
<svg version="1.0" xmlns="http://www.w3.org/2000/svg"
 width="700.000000pt" height="700.000000pt" viewBox="0 0 700.000000 700.000000"
 preserveAspectRatio="xMidYMid meet">
<metadata>
Created by potrace 1.11, written by Peter Selinger 2001-2013
</metadata>
<g transform="translate(0.000000,700.000000) scale(0.100000,-0.100000)"
fill="#000000" stroke="none">
<path d="M527 6759 c-118 -17 -224 -97 -276 -208 l-26 -56 0 -3050 0 -3050 27
-57 c34 -73 103 -142 176 -176 l57 -27 3055 0 3055 0 55 28 c111 58 182 156
201 278 6 41 9 1130 7 3049 l-3 2985 -23 57 c-48 119 -165 210 -293 228 -81
12 -5932 11 -6012 -1z m4355 -1966 c136 -135 249 -256 250 -267 6 -35 -13 -65
-46 -74 -17 -5 -145 -31 -283 -58 -139 -27 -253 -51 -253 -54 0 -3 56 -66 125
-138 91 -97 125 -140 127 -160 4 -65 -5 -98 -35 -138 -18 -23 -419 -431 -892
-907 -847 -853 -861 -866 -906 -872 -70 -10 -109 12 -234 135 l-111 110 -48
-245 c-34 -171 -54 -249 -66 -260 -39 -36 -55 -24 -317 237 -266 265 -278 282
-235 321 10 10 110 34 259 64 l242 48 -119 128 c-99 106 -120 134 -121 160 -2
61 3 82 26 117 23 35 1711 1743 1747 1769 33 23 90 31 132 20 31 -9 70 -40
176 -145 l136 -134 53 274 c29 151 60 284 68 295 9 14 25 21 46 21 27 0 60
-29 279 -247z"/>
<path d="M4637 4843 c-8 -14 -71 -363 -66 -367 4 -4 337 59 368 70 10 3 -35
55 -134 154 -83 83 -153 150 -157 150 -4 0 -9 -3 -11 -7z"/>
<path d="M4055 4602 c-6 -4 -39 -37 -73 -74 l-64 -67 43 -568 c23 -312 45
-571 49 -575 3 -4 66 53 140 127 l134 134 -34 458 -34 458 -56 58 c-53 53 -81
67 -105 49z"/>
<path d="M3666 4211 l-138 -139 43 -576 c24 -317 46 -576 49 -576 3 0 66 60
139 134 l134 135 -44 581 -44 580 -139 -139z"/>
<path d="M4350 4335 c0 -40 41 -591 46 -613 4 -21 21 -7 142 119 75 78 138
151 140 163 2 16 -39 63 -163 186 -116 116 -165 159 -165 145z"/>
<path d="M3271 3816 l-134 -134 43 -579 c24 -318 45 -580 47 -582 5 -6 42 30
165 162 l110 117 -43 575 c-24 316 -46 575 -49 575 -3 0 -66 -60 -139 -134z"/>
<path d="M2881 3418 l-134 -139 35 -467 36 -466 55 -53 c30 -29 61 -53 67 -53
7 0 49 35 93 78 l80 79 -43 574 c-24 316 -46 577 -49 581 -3 3 -66 -57 -140
-134z"/>
<path d="M2481 3016 c-107 -107 -142 -148 -139 -164 1 -11 78 -97 171 -191
159 -161 167 -168 167 -138 1 65 -43 622 -49 629 -4 4 -71 -57 -150 -136z"/>
<path d="M2310 2382 c-96 -19 -177 -37 -180 -39 -4 -4 291 -303 300 -303 3 0
21 78 40 173 18 94 35 180 38 190 5 21 13 22 -198 -21z"/>
</g>
</svg>
