<svg id="Layer_1" xmlns="http://www.w3.org/2000/svg" viewBox="0 0 359 656"><style>.st0{fill:none}.st1,.st2,.st3,.st4{fill:none;stroke:#015347;stroke-width:2;stroke-miterlimit:10}.st2{stroke-linecap:round}.st3,.st4{stroke-linejoin:round}.st4{stroke-linecap:round}</style><switch><g><path class="st0" d="M0 0h359v656H0z"/><g opacity=".15"><path class="st1" d="M24.8 40.5L27.6 65c0 2.3 1.9 4.2 4.2 4.2h11.7c2.3 0 4.2-1.9 4.2-4.2l2.8-24.5H24.8zM23.1 36.3H53v4.2H23.1z"/><path class="st1" d="M25.8 29.6h23.9v6.7H25.8zM25.8 49.1h23.8M43.7 29.6v-6.9h-2.8v6.9M40.9 40.5v8.6h2.8v-8.6"/><circle class="st1" cx="179.9" cy="46" r="19.8"/><circle class="st1" cx="179.9" cy="46" r="5.3"/><path class="st1" d="M164.9 58.9c3.7 0 3.7-3.1 7.5-3.1 3.7 0 3.7 3.1 7.5 3.1 3.7 0 3.7-3.1 7.5-3.1 3.7 0 3.7 3.1 7.5 3.1"/><circle class="st1" cx="171.5" cy="36.8" r="1.2"/><circle class="st1" cx="189" cy="37.3" r="1.7"/><circle class="st1" cx="190.9" cy="48.9" r="1"/><circle class="st1" cx="167" cy="49.7" r="1.5"/><circle class="st1" cx="41.8" cy="57.1" r="1.4"/><circle class="st1" cx="32" cy="64.6" r="1.1"/><circle class="st1" cx="33.2" cy="56.6" r="1.1"/><path class="st1" d="M93.3 130.9v6.5l3-2 2.9 2 3-2 3 2 2.9-2 3 2 3-2 2.9 2 3-2 3 2V97l-3 2-3-2-2.9 2-3-2-3 2-2.9-2-3 2-3-2-2.9 2-3-2v30.1zM123 132.6H93.3M123 101.9H93.3"/><ellipse class="st1" cx="108.1" cy="117.2" rx="6.9" ry="7.1"/><path class="st1" d="M239.8 107.2V133.8l2.1-1.9 2.1 1.9 2.1-1.9 2.1 1.9 2.1-1.9 2.1 1.9 2-1.9 2.1 1.9 2.1-1.9 2.1 1.9v-18.9zM260.7 129h-20.8M259.2 114.2V95.9h-17.9v11.8M250.3 95.9V111M259.2 101.6h-17.9M259.2 106.7h-17.9M239.8 112l20.9 7.8M322.3 48.5v19c0 .6-.5 1.2-1.2 1.2h-.1c-.6 0-1.2-.5-1.2-1.2V48.4"/><circle class="st3" cx="321.1" cy="36.5" r="12.1"/><path class="st3" d="M332.5 33c-1.2-.8-2.7-1.2-4.2-1.2-3.2 0-6 1.9-7.3 4.7.8-.3 1.6-.4 2.5-.4 3.9 0 7.2 2.8 7.8 6.5M311 29.9c.2 1.4.7 2.8 1.7 4 2 2.5 5.3 3.4 8.2 2.7-.7-.4-1.4-1-1.9-1.7-2.5-3-2.3-7.3.1-10.2"/><path class="st3" d="M319.1 48.3c1.2-.7 2.3-1.8 3-3.2 1.5-2.9 1-6.2-.9-8.6-.1.8-.4 1.6-.8 2.4-1.8 3.5-5.7 5.1-9.4 4.1"/><path class="st1" d="M39.5 190v19c0 .6-.5 1.2-1.2 1.2h-.1c-.6 0-1.2-.5-1.2-1.2v-19.1"/><circle class="st3" cx="38.2" cy="177.9" r="12.1"/><path class="st3" d="M49.7 174.4c-1.2-.8-2.7-1.2-4.2-1.2-3.2 0-6 1.9-7.3 4.7.8-.3 1.6-.4 2.5-.4 3.9 0 7.2 2.8 7.8 6.5M28.2 171.3c.2 1.4.7 2.8 1.7 4 2 2.5 5.3 3.4 8.2 2.7-.7-.4-1.4-1-1.9-1.7-2.5-3-2.3-7.3.1-10.2"/><path class="st3" d="M36.3 189.8c1.2-.7 2.3-1.8 3-3.2 1.5-2.9 1-6.2-.9-8.6-.1.8-.4 1.6-.8 2.4-1.8 3.5-5.7 5.1-9.4 4.1"/><path class="st1" d="M307.6 183.1l2.8 24.4c0 2.3 1.9 4.2 4.2 4.2h11.7c2.3 0 4.2-1.9 4.2-4.2l2.8-24.4h-25.7zM306 178.9h29.9v4.2H306zM308.6 172.2h23.9v6.7h-23.9zM308.6 191.7h23.8M326.6 172.2v-6.8h-2.8v6.8"/><path class="st1" d="M323.8 183.1v8.6h2.8v-8.6"/><circle class="st1" cx="324.7" cy="199.7" r="1.4"/><circle class="st1" cx="314.9" cy="207.2" r="1.1"/><circle class="st1" cx="316" cy="199.2" r="1.1"/><path class="st1" d="M95.5 252.6l2.8 24.4c0 2.3 1.9 4.2 4.2 4.2h11.7c2.3 0 4.2-1.9 4.2-4.2l2.8-24.4H95.5z"/><path class="st1" d="M93.8 248.5h29.9v4.2H93.8zM96.5 241.8h23.9v6.7H96.5zM96.5 261.2h23.8M114.4 241.8v-6.9h-2.7v6.9"/><path class="st1" d="M111.7 252.6v8.6h2.7v-8.6"/><circle class="st1" cx="250.6" cy="258.1" r="19.8"/><circle class="st1" cx="250.6" cy="258.1" r="5.3"/><path class="st1" d="M235.7 271c3.7 0 3.7-3.1 7.5-3.1 3.7 0 3.7 3.1 7.5 3.1 3.7 0 3.7-3.1 7.5-3.1s3.7 3.1 7.5 3.1"/><circle class="st1" cx="242.2" cy="248.9" r="1.2"/><circle class="st1" cx="259.7" cy="249.5" r="1.7"/><circle class="st1" cx="261.7" cy="261" r="1"/><circle class="st1" cx="237.7" cy="261.9" r="1.5"/><circle class="st1" cx="112.5" cy="269.3" r="1.4"/><circle class="st1" cx="102.7" cy="276.7" r="1.1"/><circle class="st1" cx="103.9" cy="268.7" r="1.1"/><path class="st1" d="M310.6 321.7V348.3l2.1-1.9 2 1.9 2.1-1.9 2.1 1.9 2.1-1.9 2.1 1.9 2.1-1.9 2.1 1.9 2-1.9 2.1 1.9v-18.9zM331.4 343.5h-20.8M330 328.7v-18.3h-18v11.8M321 310.4v15.1M330 316.1h-18M330 321.2h-18M310.6 326.5l20.8 7.8M23.8 343.1v6.4l2.9-1.9 3 1.9 3-1.9 2.9 1.9 3-1.9 3 1.9 2.9-1.9 3 1.9 3-1.9 2.9 1.9v-40.3l-2.9 1.9-3-1.9-3 1.9-2.9-1.9-3 1.9-3-1.9-2.9 1.9-3-1.9-3 1.9-2.9-1.9v30.1zM53.4 344.7H23.8M53.4 314.1H23.8"/><ellipse class="st1" cx="38.6" cy="329.4" rx="6.9" ry="7.1"/><path class="st2" d="M53.4 342.1h-5.2M53.4 339.3h-8.5"/><path class="st1" d="M40.6 327c-.4-.3-1-.5-1.5-.5-1.5 0-2.8 1.3-2.8 2.9s1.2 2.9 2.8 2.9c.7 0 1.3-.3 1.8-.7M100.5 413l-.9-11.6M105.4 412.3l-1.2-15.5M110.1 407.7l-1.2-15.5M114.8 403.1l-1.2-15.5M119.4 398.5l-.9-11.5"/><path class="st4" d="M121.1 388.5l7-1.4-5.7-5.6zM98.4 410.9l-7 1.4 5.6 5.6z"/><path class="st1" d="M124 393.8l-20.6 20.6c-.4.4-1 .4-1.4 0l-7-7c-.4-.4-.4-1 0-1.4l20.6-20.6c.4-.4 1-.4 1.4 0l7 7c.3.4.3 1 0 1.4zM236.9 395.3l2.8 24.5c0 2.3 1.9 4.2 4.2 4.2h11.7c2.3 0 4.2-1.9 4.2-4.2l2.8-24.5h-25.7zM235.2 391.1h29.9v4.2h-29.9zM237.9 384.4h23.9v6.7h-23.9zM237.9 403.8h23.8M255.9 384.4v-6.9h-2.8v6.9"/><path class="st1" d="M253.1 395.3v8.5h2.8v-8.5"/><circle class="st1" cx="254" cy="411.9" r="1.4"/><circle class="st1" cx="244.2" cy="419.3" r="1.1"/><circle class="st1" cx="245.3" cy="411.3" r="1.1"/><path class="st1" d="M180.9 331.4v19c0 .6-.5 1.2-1.2 1.2h-.1c-.6 0-1.2-.5-1.2-1.2v-19.1"/><circle class="st3" cx="179.6" cy="319.4" r="12.1"/><path class="st3" d="M191.1 315.8c-1.2-.8-2.7-1.2-4.2-1.2-3.2 0-6 1.9-7.3 4.7.8-.3 1.6-.4 2.5-.4 3.9 0 7.2 2.8 7.8 6.5M169.6 312.7c.2 1.4.7 2.8 1.7 4 2 2.5 5.3 3.4 8.2 2.7-.7-.4-1.4-1-1.9-1.7-2.5-3-2.3-7.3.1-10.2"/><path class="st3" d="M177.7 331.2c1.2-.7 2.3-1.8 3-3.2 1.5-2.9 1-6.2-.9-8.6-.1.8-.4 1.6-.8 2.4-1.8 3.5-5.7 5.1-9.4 4.1"/><path class="st1" d="M25.9 466l2.8 24.5c0 2.3 1.9 4.2 4.2 4.2h11.7c2.3 0 4.2-1.9 4.2-4.2l2.8-24.5H25.9zM24.3 461.8h29.9v4.2H24.3zM26.9 455.1h23.9v6.7H26.9zM26.9 474.6h23.8M44.9 455.1v-6.9h-2.8v6.9"/><path class="st1" d="M42.1 466v8.6h2.8V466"/><circle class="st1" cx="181.1" cy="471.4" r="19.8"/><circle class="st1" cx="181.1" cy="471.4" r="5.3"/><path class="st1" d="M166.1 484.3c3.7 0 3.7-3.1 7.5-3.1 3.7 0 3.7 3.1 7.5 3.1 3.7 0 3.7-3.1 7.5-3.1s3.7 3.1 7.5 3.1"/><circle class="st1" cx="172.6" cy="462.2" r="1.2"/><circle class="st1" cx="190.1" cy="462.8" r="1.7"/><circle class="st1" cx="192.1" cy="474.4" r="1"/><circle class="st1" cx="168.2" cy="475.2" r="1.5"/><circle class="st1" cx="43" cy="482.6" r="1.4"/><circle class="st1" cx="33.2" cy="490" r="1.1"/><circle class="st1" cx="34.3" cy="482" r="1.1"/><path class="st1" d="M323.5 474v19c0 .6-.5 1.2-1.2 1.2h-.1c-.6 0-1.2-.5-1.2-1.2v-19.1"/><g><circle class="st3" cx="322.2" cy="462" r="12.1"/><path class="st3" d="M333.7 458.5c-1.2-.8-2.7-1.2-4.2-1.2-3.2 0-6 1.9-7.3 4.7.8-.3 1.6-.4 2.5-.4 3.9 0 7.2 2.8 7.8 6.5M312.2 455.4c.2 1.4.7 2.8 1.7 4 2 2.5 5.3 3.4 8.2 2.7-.7-.4-1.4-1-1.9-1.7-2.5-3-2.3-7.3.1-10.2"/><path class="st3" d="M320.3 473.8c1.2-.7 2.3-1.8 3-3.2 1.5-2.9 1-6.2-.9-8.6-.1.8-.4 1.6-.8 2.4-1.8 3.5-5.7 5.1-9.4 4.1"/></g><path class="st1" d="M95.7 557.6v6.4l2.9-1.9 3 1.9 3-1.9 2.9 1.9 3-1.9 3 1.9 2.9-1.9 3 1.9 3-1.9 2.9 1.9v-40.3l-2.9 1.9-3-1.9-3 1.9-2.9-1.9-3 1.9-3-1.9-2.9 1.9-3-1.9-3 1.9-2.9-1.9v30.1zM125.3 559.2H95.7M125.3 528.6H95.7"/><ellipse class="st1" cx="110.5" cy="543.9" rx="6.9" ry="7.1"/><path class="st2" d="M125.3 556.6h-5.2M125.3 553.8h-8.5"/><path class="st1" d="M112.5 541.5c-.4-.3-1-.5-1.5-.5-1.5 0-2.8 1.3-2.8 2.9s1.2 2.9 2.8 2.9c.7 0 1.3-.3 1.8-.7M242.2 533.8V560.5l2.1-2 2.1 2 2.1-2 2.1 2 2-2 2.1 2 2.1-2 2.1 2 2.1-2 2.1 2v-19zM263 555.7h-20.8"/><path class="st1" d="M261.6 540.9v-18.4h-17.9v11.9M252.6 522.5v15.2M261.6 528.3h-17.9M261.6 533.3h-17.9M242.2 538.6l20.8 7.9M312.9 603.3V630l2.1-1.9 2.1 1.9 2.1-1.9 2.1 1.9 2.1-1.9 2 1.9 2.1-1.9 2.1 1.9 2.1-1.9 2.1 1.9v-18.9zM333.7 625.2H313"/><path class="st1" d="M332.3 610.4v-18.3h-17.9v11.8M323.3 592.1v15.1M332.3 597.8h-17.9M332.3 602.9h-17.9M312.9 608.2l20.8 7.8M26.1 624.8v6.4l3-2 3 2 2.9-2 3 2 3-2 2.9 2 3-2 3 2 2.9-2 3 2v-40.3l-3 1.9-3-1.9-2.9 1.9-3-1.9-3 1.9-2.9-1.9-3 1.9-3-1.9-2.9 1.9-3-1.9v30zM55.8 626.4H26.1M55.8 595.7H26.1"/><ellipse class="st1" cx="41" cy="611" rx="6.9" ry="7.1"/><path class="st2" d="M55.8 623.8h-5.2M55.8 620.9h-8.5"/><path class="st1" d="M43 608.7c-.4-.3-1-.5-1.5-.5-1.5 0-2.8 1.3-2.8 2.9 0 1.6 1.2 2.9 2.8 2.9.7 0 1.3-.3 1.8-.7M183.2 613.1v19c0 .6-.5 1.2-1.2 1.2h-.1c-.6 0-1.2-.5-1.2-1.2V613"/><g><circle class="st3" cx="182" cy="601.1" r="12.1"/><path class="st3" d="M193.5 597.5c-1.2-.8-2.7-1.2-4.2-1.2-3.2 0-6 1.9-7.3 4.7.8-.3 1.6-.4 2.5-.4 3.9 0 7.2 2.8 7.8 6.5M172 594.4c.2 1.4.7 2.8 1.7 4 2 2.5 5.3 3.4 8.2 2.7-.7-.4-1.4-1-1.9-1.7-2.5-3-2.3-7.3.1-10.2M180 612.9c1.2-.7 2.3-1.8 3-3.2 1.5-2.9 1-6.2-.9-8.6-.1.8-.4 1.6-.8 2.4-1.8 3.5-5.7 5.1-9.4 4.1"/></g></g></g></switch></svg>